<svg width="17" height="18" viewBox="0 0 17 18" fill="none" xmlns="http://www.w3.org/2000/svg">
<path d="M15.4389 5.66509L6.93888 14.1651C6.86485 14.2394 6.77688 14.2983 6.68002 14.3385C6.58316 14.3788 6.47931 14.3995 6.37443 14.3995C6.26955 14.3995 6.1657 14.3788 6.06884 14.3385C5.97198 14.2983 5.88401 14.2394 5.80998 14.1651L2.09123 10.4463C2.0171 10.3722 1.9583 10.2842 1.91819 10.1874C1.87807 10.0905 1.85742 9.98672 1.85742 9.88189C1.85742 9.77706 1.87807 9.67326 1.91819 9.57641C1.9583 9.47956 2.0171 9.39156 2.09123 9.31744C2.16535 9.24331 2.25335 9.18451 2.3502 9.1444C2.44705 9.10428 2.55085 9.08363 2.65568 9.08363C2.76051 9.08363 2.86431 9.10428 2.96116 9.1444C3.05801 9.18451 3.14601 9.24331 3.22013 9.31744L6.37509 12.4724L14.3113 4.53751C14.461 4.38781 14.664 4.30371 14.8758 4.30371C15.0875 4.30371 15.2905 4.38781 15.4402 4.53751C15.5899 4.68722 15.674 4.89026 15.674 5.10197C15.674 5.31368 15.5899 5.51672 15.4402 5.66642L15.4389 5.66509Z" fill="#0B8FCF"/>
</svg>
