<?xml version="1.0" encoding="UTF-8"?>
<svg id="Layer_1" data-name="Layer 1" xmlns="http://www.w3.org/2000/svg" viewBox="0 0 1385.29 301.12">
  <defs>
    <style>
      .cls-1 {
        fill: #0b8fcf;
      }

      .cls-1, .cls-2 {
        stroke-width: 0px;
      }

      .cls-2 {
        fill: #fff;
      }
    </style>
  </defs>
  <g>
    <path class="cls-1" d="M350.63,119.81c.88,0,1.38,1.01.84,1.7l-79.64,103.83-14.41,18.79h0c-7.96,10.38-23.61,10.38-31.57,0h0s-12.06-15.74-12.06-15.74l30.19-39.37,52.78-68.81c.2-.26.51-.41.84-.41h53.04Z"/>
    <path class="cls-2" d="M209.16,143.65l34.81,45.38-30.19,39.37-34.81-45.38-20.45-26.66c-5.88-7.66-5.88-18.32,0-25.99l8.1-10.56,12.13-15.81,2.03-2.65,44.42-57.92c.43-.56,1.09-.88,1.79-.88h55.14c1.87,0,2.93,2.15,1.79,3.63l-42.32,55.18-14.17,18.47-18.29,23.84Z"/>
    <path class="cls-1" d="M406.14,50.23l-29.32,38.23-9.26,12.07c-.39.51-1.01.82-1.65.82h-50.45c-1.73,0-2.71-1.98-1.65-3.35l35.17-45.84,5.64-7.36c1.09-1.42,2.77-2.25,4.55-2.25h31.36c6.12,0,11.88,2.84,15.61,7.69h0Z"/>
    <path class="cls-2" d="M466.53,128.98c5.97,7.79,5.97,18.62,0,26.41l-19.19,25.02-46.34,60.42c-1.6,2.08-4.07,3.3-6.69,3.3h-55.59c-1.1,0-1.72-1.26-1.05-2.13l78.45-102.28-15.26-19.9-14.16-18.47-9.88-12.89,29.32-38.23,39.2,51.11.1.14,14.06,18.32,7.03,9.17Z"/>
  </g>
  <g>
    <path class="cls-2" d="M524.23,80.58h32.65c17.86,0,22.47,5.57,22.47,24.97v15.36c0,14.21-2.5,20.93-10.75,23.43,8.26,2.69,10.75,9.22,10.75,23.24v22.47c0,19.4-4.61,24.97-22.47,24.97h-32.65V80.58ZM562.45,108.24c0-9.03-.58-11.91-8.64-11.91h-12.68v40.14h12.68c7.87,0,8.64-2.88,8.64-11.91v-16.32ZM541.14,152.22v47.05h12.68c8.07,0,8.64-2.88,8.64-11.91v-23.24c0-9.03-.77-11.91-8.64-11.91h-12.68Z"/>
    <path class="cls-2" d="M647.73,191.4c0,8.64.77,16.9,2.88,23.62h-17.67c-1.92-4.42-2.11-12.48-2.11-20.93v-25.73c0-9.22-1.54-13.44-9.99-13.44h-11.33v60.11h-16.9V80.58h32.65c17.86,0,22.47,5.57,22.47,24.97v18.24c0,14.02-2.5,20.74-10.75,23.24,8.26,2.69,10.75,9.41,10.75,23.62v20.74ZM630.83,108.24c0-9.03-.58-11.91-8.64-11.91h-12.68v42.83h12.68c7.87,0,8.64-2.88,8.64-11.91v-19.01Z"/>
    <path class="cls-2" d="M696.13,194.47h-21.7l-2.88,20.55h-15.17l18.24-134.44h23.24l18.05,134.44h-16.9l-2.88-20.55ZM676.54,178.72h17.48l-2.11-16.33c-3.46-26.89-5.38-49.74-6.72-67.79-1.35,18.05-3.07,40.91-6.53,67.79l-2.11,16.33Z"/>
    <path class="cls-2" d="M744.14,137.24c-1.92-8.45-3.07-16.33-4.23-24.2.19,7.87.38,15.75.38,24.58v77.4h-14.6V80.58h21.32l15.94,71.83c1.92,8.45,3.26,16.33,4.42,24.2-.19-7.87-.77-15.75-.77-24.39v-71.64h14.79v134.44h-19.2l-18.05-77.78Z"/>
    <path class="cls-2" d="M796.39,80.58h32.46c17.86,0,22.66,5.57,22.66,24.97v84.5c0,19.4-4.8,24.97-22.66,24.97h-32.46V80.58ZM825.96,199.27c7.88,0,8.64-2.88,8.64-11.91v-79.13c0-9.03-.77-11.91-8.64-11.91h-12.68v102.94h12.68Z"/>
    <path class="cls-1" d="M925.84,178.92c0-12.1-2.88-15.75-16.33-27.85-15.56-14.02-19.59-19.97-19.59-37.64v-8.83c0-19.4,4.61-24.97,22.47-24.97h7.87c17.86,0,22.47,5.57,22.47,24.97v20.93h-15.94v-18.24c0-9.03-.58-11.91-8.64-11.91h-2.88c-7.87,0-8.64,2.88-8.64,11.52v6.34c0,12.1,2.88,15.94,16.33,28.04,15.56,14.02,19.78,19.78,19.78,37.45v12.29c0,19.4-4.8,24.97-22.47,24.97h-8.07c-17.67,0-22.28-5.57-22.28-24.97v-24.78h15.75v22.09c0,9.03.58,11.91,8.64,11.91h2.88c7.87,0,8.64-2.88,8.64-11.91v-9.41Z"/>
    <path class="cls-1" d="M963.29,215.02v-118.69h-14.79v-15.75h46.29v15.75h-14.6v118.69h-16.9Z"/>
    <path class="cls-1" d="M1057.97,191.4c0,8.64.77,16.9,2.88,23.62h-17.67c-1.92-4.42-2.11-12.48-2.11-20.93v-25.73c0-9.22-1.54-13.44-9.99-13.44h-11.33v60.11h-16.9V80.58h32.65c17.86,0,22.47,5.57,22.47,24.97v18.24c0,14.02-2.5,20.74-10.75,23.24,8.26,2.69,10.75,9.41,10.75,23.62v20.74ZM1041.07,108.24c0-9.03-.58-11.91-8.64-11.91h-12.68v42.83h12.68c7.87,0,8.64-2.88,8.64-11.91v-19.01Z"/>
    <path class="cls-1" d="M1072.19,80.58h16.9v134.44h-16.9V80.58Z"/>
    <path class="cls-1" d="M1124.04,139.54c2.5,18.63,4.23,38.99,5.38,52.43,1.15-13.64,3.07-33.8,5.57-52.43l7.68-58.96h15.17l-18.05,134.44h-22.47l-18.25-134.44h17.09l7.87,58.96Z"/>
    <path class="cls-1" d="M1184.54,136.86h20.93v15.75h-20.93v46.67h25.16v15.75h-42.06V80.58h42.06v15.75h-25.16v40.52Z"/>
    <path class="cls-1" d="M1255.03,178.92c0-12.1-2.88-15.75-16.33-27.85-15.56-14.02-19.59-19.97-19.59-37.64v-8.83c0-19.4,4.61-24.97,22.47-24.97h7.87c17.86,0,22.47,5.57,22.47,24.97v20.93h-15.94v-18.24c0-9.03-.58-11.91-8.64-11.91h-2.88c-7.87,0-8.64,2.88-8.64,11.52v6.34c0,12.1,2.88,15.94,16.33,28.04,15.56,14.02,19.78,19.78,19.78,37.45v12.29c0,19.4-4.8,24.97-22.47,24.97h-8.07c-17.67,0-22.28-5.57-22.28-24.97v-24.78h15.75v22.09c0,9.03.58,11.91,8.64,11.91h2.88c7.87,0,8.64-2.88,8.64-11.91v-9.41Z"/>
  </g>
</svg>