<svg width="72" height="72" viewBox="0 0 72 72" fill="none" xmlns="http://www.w3.org/2000/svg">
<g clip-path="url(#clip0_45_2887)">
<path d="M36.0004 72C28.8811 71.9989 21.9219 69.887 16.0027 65.9312C10.0836 61.9754 5.47021 56.3533 2.74591 49.7759C0.021601 43.1984 -0.691309 35.9609 0.697308 28.9783C2.08592 21.9957 5.51372 15.5816 10.5473 10.5469C16.322 4.78218 23.8832 1.14956 31.9924 0.244157C40.1016 -0.661245 48.2779 1.21425 55.1818 5.56339C62.0857 9.91254 67.3078 16.4775 69.9927 24.1826C72.6776 31.8878 72.666 40.2765 69.9599 47.9742C69.8322 48.321 69.5731 48.6036 69.2386 48.7608C68.9042 48.918 68.5213 48.9373 68.1727 48.8144C67.8242 48.6915 67.5381 48.4363 67.3762 48.1041C67.2143 47.7719 67.1897 47.3893 67.3077 47.0391C68.5568 43.4929 69.1926 39.7598 69.1879 36C69.1879 17.7005 54.2999 2.81252 36.0004 2.81252C17.7009 2.81252 2.81294 17.7005 2.81294 36C2.81294 54.2995 17.7009 69.1875 36.0004 69.1875C39.7602 69.1923 43.4933 68.5564 47.0395 67.3074C47.3897 67.1893 47.7723 67.2139 48.1045 67.3758C48.4367 67.5377 48.6919 67.8238 48.8148 68.1723C48.9376 68.5209 48.9184 68.9038 48.7612 69.2382C48.604 69.5727 48.3214 69.8318 47.9746 69.9595C44.1282 71.3151 40.0788 72.0051 36.0004 72Z" fill="black"/>
<path d="M36 7.04812C35.8153 7.04812 35.6325 7.01175 35.4619 6.94108C35.2912 6.87041 35.1362 6.76683 35.0056 6.63624C34.875 6.50566 34.7715 6.35064 34.7008 6.18002C34.6301 6.00941 34.5938 5.82655 34.5938 5.64187V1.40625C34.5938 1.03329 34.7419 0.675604 35.0056 0.411881C35.2694 0.148158 35.627 0 36 0C36.373 0 36.7306 0.148158 36.9944 0.411881C37.2581 0.675604 37.4062 1.03329 37.4062 1.40625V5.64187C37.4062 6.01484 37.2581 6.37252 36.9944 6.63624C36.7306 6.89997 36.373 7.04812 36 7.04812ZM57.4664 15.9398C57.1883 15.9398 56.9165 15.8573 56.6853 15.7028C56.4541 15.5482 56.2739 15.3286 56.1675 15.0717C56.0611 14.8148 56.0332 14.5321 56.0875 14.2593C56.1417 13.9866 56.2756 13.736 56.4722 13.5394L59.4675 10.5469C59.7354 10.3074 60.0848 10.1795 60.444 10.1896C60.8032 10.1997 61.145 10.3468 61.3991 10.6009C61.6532 10.855 61.8003 11.1968 61.8104 11.556C61.8205 11.9152 61.6926 12.2646 61.4531 12.5325L58.4578 15.5278C58.3279 15.6585 58.1734 15.7622 58.0033 15.8329C57.8331 15.9036 57.6507 15.94 57.4664 15.9398ZM70.5938 37.4062H66.3581C65.9852 37.4062 65.6275 37.2581 65.3638 36.9944C65.1 36.7306 64.9519 36.373 64.9519 36C64.9519 35.627 65.1 35.2694 65.3638 35.0056C65.6275 34.7419 65.9852 34.5938 66.3581 34.5938H70.5938C70.9667 34.5938 71.3244 34.7419 71.5881 35.0056C71.8518 35.2694 72 35.627 72 36C72 36.373 71.8518 36.7306 71.5881 36.9944C71.3244 37.2581 70.9667 37.4062 70.5938 37.4062ZM36 72C35.627 72 35.2694 71.8518 35.0056 71.5881C34.7419 71.3244 34.5938 70.9667 34.5938 70.5938V66.3581C34.5938 65.9852 34.7419 65.6275 35.0056 65.3638C35.2694 65.1 35.627 64.9519 36 64.9519C36.373 64.9519 36.7306 65.1 36.9944 65.3638C37.2581 65.6275 37.4062 65.9852 37.4062 66.3581V70.5938C37.4062 70.9667 37.2581 71.3244 36.9944 71.5881C36.7306 71.8518 36.373 72 36 72ZM11.5383 61.875C11.259 61.8758 10.9858 61.7934 10.7535 61.6383C10.5212 61.4832 10.3403 61.2625 10.234 61.0042C10.1276 60.746 10.1006 60.4619 10.1563 60.1882C10.2121 59.9145 10.348 59.6636 10.5469 59.4675L13.5422 56.4722C13.6719 56.3379 13.8271 56.2307 13.9986 56.157C14.1702 56.0833 14.3547 56.0446 14.5415 56.0429C14.7282 56.0413 14.9134 56.0769 15.0862 56.1476C15.259 56.2183 15.416 56.3227 15.5481 56.4548C15.6801 56.5868 15.7845 56.7438 15.8552 56.9166C15.9259 57.0894 15.9615 57.2746 15.9599 57.4613C15.9583 57.6481 15.9195 57.8326 15.8458 58.0042C15.7721 58.1757 15.6649 58.3309 15.5306 58.4606L12.5325 61.4531C12.4028 61.5855 12.2481 61.6909 12.0775 61.7633C11.9069 61.8357 11.7236 61.8737 11.5383 61.875ZM5.64187 37.4062H1.40625C1.03329 37.4062 0.675604 37.2581 0.411881 36.9944C0.148158 36.7306 0 36.373 0 36C0 35.627 0.148158 35.2694 0.411881 35.0056C0.675604 34.7419 1.03329 34.5938 1.40625 34.5938H5.64187C6.01484 34.5938 6.37252 34.7419 6.63624 35.0056C6.89997 35.2694 7.04812 35.627 7.04812 36C7.04812 36.373 6.89997 36.7306 6.63624 36.9944C6.37252 37.2581 6.01484 37.4062 5.64187 37.4062ZM14.5336 15.9398C14.3489 15.9403 14.1659 15.9042 13.9952 15.8335C13.8245 15.7627 13.6696 15.6588 13.5394 15.5278L10.5469 12.5325C10.3074 12.2646 10.1795 11.9152 10.1896 11.556C10.1997 11.1968 10.3468 10.855 10.6009 10.6009C10.855 10.3468 11.1968 10.1997 11.556 10.1896C11.9152 10.1795 12.2646 10.3074 12.5325 10.5469L15.5278 13.5422C15.7244 13.7389 15.8583 13.9894 15.9125 14.2621C15.9668 14.5349 15.9389 14.8176 15.8325 15.0745C15.7261 15.3314 15.5459 15.551 15.3147 15.7056C15.0835 15.8601 14.8117 15.9426 14.5336 15.9427V15.9398ZM55.0617 72C51.7116 72 48.4368 71.0066 45.6513 69.1454C42.8658 67.2842 40.6948 64.6388 39.4128 61.5437C38.1308 58.4487 37.7953 55.0429 38.4489 51.7572C39.1025 48.4715 40.7157 45.4534 43.0845 43.0845C45.4534 40.7157 48.4715 39.1025 51.7572 38.4489C55.0429 37.7953 58.4487 38.1308 61.5437 39.4128C64.6388 40.6948 67.2842 42.8658 69.1454 45.6513C71.0066 48.4368 72 51.7116 72 55.0617C71.9952 59.5525 70.209 63.8581 67.0335 67.0335C63.8581 70.209 59.5525 71.9952 55.0617 72ZM55.0617 40.9359C52.2679 40.9359 49.5368 41.7644 47.2139 43.3166C44.8909 44.8687 43.0803 47.0749 42.0112 49.656C40.9421 52.2372 40.6623 55.0774 41.2074 57.8175C41.7524 60.5577 43.0978 63.0746 45.0733 65.0502C47.0488 67.0257 49.5658 68.371 52.3059 68.9161C55.0461 69.4611 57.8863 69.1814 60.4674 68.1122C63.0486 67.0431 65.2547 65.2326 66.8069 62.9096C68.359 60.5866 69.1875 57.8555 69.1875 55.0617C69.1834 51.3166 67.6938 47.726 65.0456 45.0778C62.3974 42.4296 58.8069 40.94 55.0617 40.9359ZM36 43.0537C34.6049 43.0537 33.2411 42.6401 32.0811 41.865C30.9212 41.0899 30.0171 39.9883 29.4832 38.6994C28.9493 37.4104 28.8096 35.9922 29.0818 34.6239C29.354 33.2556 30.0258 31.9987 31.0122 31.0122C31.9987 30.0258 33.2556 29.354 34.6239 29.0818C35.9922 28.8096 37.4104 28.9493 38.6994 29.4832C39.9883 30.0171 41.0899 30.9212 41.865 32.0811C42.6401 33.2411 43.0537 34.6049 43.0537 36C43.0519 37.8702 42.3081 39.6633 40.9857 40.9857C39.6633 42.3081 37.8702 43.0519 36 43.0537ZM36 31.7587C35.1612 31.7587 34.3412 32.0075 33.6437 32.4735C32.9462 32.9396 32.4026 33.602 32.0816 34.3769C31.7606 35.1519 31.6766 36.0047 31.8402 36.8274C32.0039 37.6501 32.4078 38.4059 33.001 38.999C33.5941 39.5922 34.3498 39.9961 35.1726 40.1598C35.9953 40.3234 36.8481 40.2394 37.6231 39.9184C38.398 39.5974 39.0604 39.0538 39.5265 38.3563C39.9925 37.6588 40.2412 36.8388 40.2412 36C40.2401 34.8755 39.7929 33.7974 38.9978 33.0022C38.2026 32.2071 37.1245 31.7599 36 31.7587Z" fill="black"/>
<path d="M38.8233 32.514C38.4503 32.514 38.0926 32.3658 37.8289 32.1021C37.5652 31.8384 37.417 31.4807 37.417 31.1077V20.6185C37.4173 19.1054 37.1946 17.6005 36.7561 16.1523C36.5496 15.4716 36.2968 14.8058 35.9995 14.1596C35.0635 16.184 34.5797 18.3881 34.582 20.6185V31.1077C34.582 31.4807 34.4339 31.8384 34.1702 32.1021C33.9064 32.3658 33.5488 32.514 33.1758 32.514C32.8028 32.514 32.4451 32.3658 32.1814 32.1021C31.9177 31.8384 31.7695 31.4807 31.7695 31.1077V20.6185C31.7656 17.0204 32.8306 13.5022 34.8295 10.5104C34.958 10.3178 35.1319 10.1599 35.336 10.0506C35.5401 9.94142 35.7681 9.88428 35.9995 9.88428C36.231 9.88428 36.4589 9.94142 36.663 10.0506C36.8671 10.1599 37.0411 10.3178 37.1695 10.5104C39.1647 13.504 40.2294 17.021 40.2295 20.6185V31.1077C40.2295 31.4807 40.0814 31.8384 39.8177 32.1021C39.5539 32.3658 39.1962 32.514 38.8233 32.514Z" fill="black"/>
<path d="M31.1079 40.23H24.8543C21.2563 40.2337 17.7381 39.1687 14.7462 37.17C14.5536 37.0416 14.3957 36.8676 14.2865 36.6635C14.1773 36.4594 14.1201 36.2315 14.1201 36C14.1201 35.7685 14.1773 35.5406 14.2865 35.3365C14.3957 35.1324 14.5536 34.9584 14.7462 34.83C17.7398 32.8349 21.2568 31.7702 24.8543 31.77H31.1079C31.4809 31.77 31.8386 31.9182 32.1023 32.1819C32.366 32.4456 32.5142 32.8033 32.5142 33.1763C32.5142 33.5492 32.366 33.9069 32.1023 34.1706C31.8386 34.4344 31.4809 34.5825 31.1079 34.5825H24.8543C23.3412 34.5823 21.8363 34.805 20.3881 35.2435C19.7074 35.4499 19.0416 35.7027 18.3954 36C20.4199 36.9361 22.624 37.4198 24.8543 37.4175H31.1079C31.4809 37.4175 31.8386 37.5657 32.1023 37.8294C32.366 38.0931 32.5142 38.4508 32.5142 38.8238C32.5142 39.1967 32.366 39.5544 32.1023 39.8181C31.8386 40.0819 31.4809 40.23 31.1079 40.23ZM60.9922 60.4223C58.3386 60.4223 54.7372 56.7661 54.0411 56.0292C53.7934 55.768 53.6553 55.4217 53.6553 55.0617C53.6553 54.7017 53.7934 54.3555 54.0411 54.0942C54.7372 53.3616 58.3386 49.7025 60.9922 49.7025C61.7033 49.691 62.4097 49.8211 63.0701 50.0853C63.7305 50.3495 64.3317 50.7425 64.8387 51.2413C65.3457 51.7402 65.7483 52.3349 66.0232 52.991C66.298 53.647 66.4396 54.3512 66.4396 55.0624C66.4396 55.7737 66.298 56.4779 66.0232 57.1339C65.7483 57.7899 65.3457 58.3847 64.8387 58.8835C64.3317 59.3824 63.7305 59.7754 63.0701 60.0395C62.4097 60.3037 61.7033 60.4339 60.9922 60.4223ZM57.0673 55.0617C58.5397 56.4173 60.23 57.6098 60.9922 57.6098C61.3317 57.6178 61.6695 57.5578 61.9855 57.4334C62.3016 57.309 62.5895 57.1226 62.8325 56.8853C63.0755 56.6479 63.2686 56.3644 63.4004 56.0514C63.5322 55.7383 63.6001 55.4021 63.6001 55.0624C63.6001 54.7228 63.5322 54.3865 63.4004 54.0735C63.2686 53.7605 63.0755 53.4769 62.8325 53.2396C62.5895 53.0023 62.3016 52.8159 61.9855 52.6915C61.6695 52.567 61.3317 52.507 60.9922 52.515C60.23 52.515 58.5397 53.7061 57.0673 55.0617Z" fill="black"/>
<path d="M49.1312 60.4224C47.7247 60.3996 46.3835 59.8249 45.3969 58.8222C44.4103 57.8194 43.8574 56.4691 43.8574 55.0624C43.8574 53.6557 44.4103 52.3054 45.3969 51.3027C46.3835 50.3 47.7247 49.7253 49.1312 49.7025C51.7848 49.7025 55.3876 53.3588 56.0823 54.0942C56.33 54.3555 56.468 54.7017 56.468 55.0617C56.468 55.4217 56.33 55.768 56.0823 56.0292C55.3876 56.7633 51.7848 60.4224 49.1312 60.4224ZM49.1312 52.515C48.466 52.5306 47.8332 52.8059 47.3683 53.2819C46.9033 53.758 46.643 54.397 46.643 55.0624C46.643 55.7279 46.9033 56.3669 47.3683 56.8429C47.8332 57.319 48.466 57.5942 49.1312 57.6099C49.8962 57.6099 51.5865 56.4174 53.0561 55.0631C51.5851 53.7075 49.8934 52.515 49.1312 52.515Z" fill="black"/>
</g>
<defs>
<clipPath id="clip0_45_2887">
<rect width="72" height="72" fill="white"/>
</clipPath>
</defs>
</svg>
