<svg width="260" height="77" viewBox="0 0 260 77" fill="none" xmlns="http://www.w3.org/2000/svg">
<circle cx="38.5" cy="38.5" r="38.5" fill="#0B8FCF"/>
<path d="M51.7408 32.5504H46.5916C46.523 32.0218 46.3822 31.5446 46.1694 31.119C45.9566 30.6933 45.6751 30.3294 45.3249 30.0273C44.9748 29.7253 44.5594 29.4953 44.0788 29.3374C43.6051 29.1726 43.0799 29.0902 42.5032 29.0902C41.4802 29.0902 40.598 29.3408 39.8565 29.842C39.1219 30.3432 38.5555 31.0675 38.1573 32.0149C37.766 32.9624 37.5703 34.1089 37.5703 35.4545C37.5703 36.8551 37.7694 38.0291 38.1676 38.9766C38.5727 39.9171 39.1391 40.6277 39.8668 41.1083C40.6014 41.582 41.4699 41.8189 42.4723 41.8189C43.0353 41.8189 43.5468 41.7468 44.0067 41.6026C44.4736 41.4585 44.8821 41.2491 45.2322 40.9744C45.5893 40.6929 45.881 40.3531 46.1076 39.9549C46.341 39.5498 46.5024 39.0933 46.5916 38.5852L51.7408 38.6161C51.6515 39.5498 51.3803 40.4698 50.9272 41.3761C50.4809 42.2823 49.8665 43.1096 49.0838 43.858C48.3011 44.5994 47.3468 45.1899 46.2209 45.6293C45.1018 46.0687 43.8179 46.2884 42.3693 46.2884C40.4607 46.2884 38.7512 45.8696 37.2408 45.032C35.7372 44.1875 34.5495 42.9586 33.6776 41.3452C32.8056 39.7318 32.3697 37.7682 32.3697 35.4545C32.3697 33.134 32.8125 31.167 33.6982 29.5536C34.5838 27.9402 35.7818 26.7147 37.2923 25.8771C38.8027 25.0395 40.495 24.6207 42.3693 24.6207C43.6463 24.6207 44.8272 24.7992 45.9119 25.1562C46.9967 25.5064 47.951 26.0213 48.7749 26.701C49.5987 27.3738 50.2681 28.2011 50.783 29.1829C51.2979 30.1647 51.6172 31.2872 51.7408 32.5504ZM54.6578 46V30.1818H59.5494V33.0653H59.7142C60.0026 32.0218 60.4729 31.246 61.1251 30.7379C61.7773 30.223 62.536 29.9656 63.401 29.9656C63.6344 29.9656 63.8747 29.9827 64.1219 30.017C64.3691 30.0445 64.599 30.0891 64.8119 30.1509V34.5277C64.5716 34.4453 64.2558 34.3801 63.8644 34.332C63.48 34.284 63.1367 34.2599 62.8346 34.2599C62.2373 34.2599 61.6984 34.3938 61.2178 34.6616C60.7441 34.9225 60.3699 35.2898 60.0953 35.7635C59.8275 36.2303 59.6936 36.7796 59.6936 37.4112V46H54.6578ZM73.4367 46.2987C71.7821 46.2987 70.3541 45.9725 69.1526 45.3203C67.958 44.6612 67.038 43.7241 66.3927 42.5089C65.7542 41.2868 65.4349 39.8348 65.4349 38.1527C65.4349 36.5187 65.7576 35.0907 66.403 33.8686C67.0483 32.6397 67.958 31.6854 69.132 31.0057C70.306 30.3191 71.6894 29.9759 73.2822 29.9759C74.4082 29.9759 75.438 30.1509 76.3717 30.5011C77.3054 30.8512 78.1121 31.3696 78.7918 32.0561C79.4715 32.7427 80.0001 33.5906 80.3778 34.5998C80.7554 35.6022 80.9442 36.7521 80.9442 38.0497V39.3061H67.1959V36.3814H76.2584C76.2516 35.8459 76.1246 35.3687 75.8774 34.9499C75.6302 34.5311 75.2904 34.205 74.8579 33.9716C74.4322 33.7313 73.9413 33.6112 73.3852 33.6112C72.8222 33.6112 72.3176 33.7382 71.8714 33.9922C71.4251 34.2393 71.0715 34.5792 70.8106 35.0117C70.5497 35.4374 70.4124 35.9214 70.3987 36.4638V39.44C70.3987 40.0853 70.5257 40.6518 70.7797 41.1392C71.0338 41.6198 71.3942 41.994 71.8611 42.2617C72.3279 42.5295 72.884 42.6634 73.5294 42.6634C73.9756 42.6634 74.3807 42.6016 74.7446 42.478C75.1085 42.3544 75.4208 42.1725 75.6817 41.9322C75.9426 41.6919 76.1383 41.3967 76.2687 41.0465L80.8927 41.1804C80.7004 42.2171 80.2782 43.1199 79.626 43.8888C78.9806 44.6509 78.1327 45.2448 77.0823 45.6705C76.0319 46.0893 74.8167 46.2987 73.4367 46.2987ZM87.9753 46.2678C86.9661 46.2678 86.0701 46.0996 85.2875 45.7631C84.5117 45.4199 83.8972 44.9049 83.4441 44.2184C82.9978 43.525 82.7747 42.6565 82.7747 41.6129C82.7747 40.7341 82.9292 39.9927 83.2381 39.3885C83.5471 38.7843 83.9727 38.2934 84.5151 37.9158C85.0575 37.5382 85.6822 37.2533 86.3894 37.0611C87.0965 36.862 87.8517 36.7281 88.655 36.6594C89.5544 36.5771 90.2787 36.4912 90.8279 36.402C91.3772 36.3059 91.7754 36.172 92.0226 36.0004C92.2766 35.8219 92.4036 35.5713 92.4036 35.2486V35.1971C92.4036 34.6684 92.2217 34.2599 91.8578 33.9716C91.4939 33.6832 91.003 33.5391 90.3851 33.5391C89.7192 33.5391 89.1837 33.6832 88.7786 33.9716C88.3735 34.2599 88.1161 34.6581 88.0062 35.1662L83.3617 35.0014C83.499 34.0402 83.8526 33.1821 84.4224 32.4268C84.9991 31.6648 85.7886 31.0675 86.791 30.6349C87.8002 30.1955 89.012 29.9759 90.4263 29.9759C91.4355 29.9759 92.3658 30.096 93.2172 30.3363C94.0685 30.5697 94.81 30.913 95.4416 31.3661C96.0732 31.8124 96.5607 32.3616 96.9039 33.0138C97.2541 33.6661 97.4292 34.411 97.4292 35.2486V46H92.6919V43.7962H92.5684C92.2869 44.3317 91.9264 44.7848 91.487 45.1555C91.0545 45.5263 90.543 45.8043 89.9526 45.9897C89.369 46.1751 88.7099 46.2678 87.9753 46.2678ZM89.5304 42.9723C90.0727 42.9723 90.5602 42.8625 90.9927 42.6428C91.4321 42.4231 91.7823 42.121 92.0431 41.7365C92.304 41.3452 92.4345 40.892 92.4345 40.3771V38.8736C92.2903 38.9491 92.1152 39.0178 91.9093 39.0795C91.7102 39.1413 91.4905 39.1997 91.2502 39.2546C91.0099 39.3095 90.7627 39.3576 90.5087 39.3988C90.2547 39.44 90.0109 39.4777 89.7775 39.5121C89.3038 39.5876 88.8987 39.7043 88.5623 39.8622C88.2328 40.0201 87.9788 40.2261 87.8002 40.4801C87.6286 40.7273 87.5428 41.0225 87.5428 41.3658C87.5428 41.8875 87.7282 42.2857 88.0989 42.5604C88.4765 42.835 88.9537 42.9723 89.5304 42.9723ZM109.437 30.1818V33.8892H99.4579V30.1818H109.437ZM101.548 26.392H106.584V41.0259C106.584 41.3349 106.632 41.5855 106.729 41.7777C106.831 41.9631 106.979 42.0969 107.171 42.1793C107.364 42.2549 107.594 42.2926 107.861 42.2926C108.054 42.2926 108.256 42.2754 108.469 42.2411C108.689 42.1999 108.853 42.1656 108.963 42.1381L109.725 45.7734C109.485 45.8421 109.145 45.9279 108.706 46.0309C108.273 46.1339 107.755 46.1991 107.151 46.2266C105.97 46.2815 104.957 46.1442 104.113 45.8146C103.275 45.4782 102.633 44.9564 102.187 44.2493C101.748 43.5421 101.535 42.6531 101.548 41.582V26.392ZM112.006 46V30.1818H117.042V46H112.006ZM114.529 28.3384C113.822 28.3384 113.215 28.105 112.707 27.6381C112.199 27.1644 111.945 26.5946 111.945 25.9286C111.945 25.2695 112.199 24.7066 112.707 24.2397C113.215 23.766 113.822 23.5291 114.529 23.5291C115.243 23.5291 115.851 23.766 116.352 24.2397C116.86 24.7066 117.114 25.2695 117.114 25.9286C117.114 26.5946 116.86 27.1644 116.352 27.6381C115.851 28.105 115.243 28.3384 114.529 28.3384ZM135.592 30.1818L130.165 46H124.398L118.981 30.1818H124.285L127.199 41.0774H127.364L130.288 30.1818H135.592ZM144.407 46.2987C142.753 46.2987 141.325 45.9725 140.123 45.3203C138.929 44.6612 138.009 43.7241 137.363 42.5089C136.725 41.2868 136.406 39.8348 136.406 38.1527C136.406 36.5187 136.728 35.0907 137.374 33.8686C138.019 32.6397 138.929 31.6854 140.103 31.0057C141.277 30.3191 142.66 29.9759 144.253 29.9759C145.379 29.9759 146.409 30.1509 147.342 30.5011C148.276 30.8512 149.083 31.3696 149.763 32.0561C150.442 32.7427 150.971 33.5906 151.348 34.5998C151.726 35.6022 151.915 36.7521 151.915 38.0497V39.3061H138.167V36.3814H147.229C147.222 35.8459 147.095 35.3687 146.848 34.9499C146.601 34.5311 146.261 34.205 145.829 33.9716C145.403 33.7313 144.912 33.6112 144.356 33.6112C143.793 33.6112 143.288 33.7382 142.842 33.9922C142.396 34.2393 142.042 34.5792 141.781 35.0117C141.52 35.4374 141.383 35.9214 141.369 36.4638V39.44C141.369 40.0853 141.496 40.6518 141.75 41.1392C142.004 41.6198 142.365 41.994 142.832 42.2617C143.299 42.5295 143.855 42.6634 144.5 42.6634C144.946 42.6634 145.351 42.6016 145.715 42.478C146.079 42.3544 146.392 42.1725 146.652 41.9322C146.913 41.6919 147.109 41.3967 147.239 41.0465L151.863 41.1804C151.671 42.2171 151.249 43.1199 150.597 43.8888C149.951 44.6509 149.103 45.2448 148.053 45.6705C147.003 46.0893 145.787 46.2987 144.407 46.2987ZM168.513 46H160.717V24.9091H168.503C170.652 24.9091 172.502 25.3313 174.054 26.1758C175.612 27.0134 176.814 28.2217 177.658 29.8008C178.502 31.373 178.925 33.2541 178.925 35.4442C178.925 37.6412 178.502 39.5292 177.658 41.1083C176.82 42.6874 175.622 43.8991 174.064 44.7436C172.505 45.5812 170.655 46 168.513 46ZM165.815 41.6541H168.317C169.498 41.6541 170.497 41.455 171.314 41.0568C172.138 40.6518 172.759 39.9961 173.178 39.0898C173.604 38.1767 173.817 36.9615 173.817 35.4442C173.817 33.927 173.604 32.7186 173.178 31.8192C172.753 30.913 172.124 30.2608 171.294 29.8626C170.47 29.4575 169.454 29.255 168.245 29.255H165.815V41.6541ZM189.295 46.2987C187.641 46.2987 186.212 45.9725 185.011 45.3203C183.816 44.6612 182.896 43.7241 182.251 42.5089C181.613 41.2868 181.293 39.8348 181.293 38.1527C181.293 36.5187 181.616 35.0907 182.261 33.8686C182.907 32.6397 183.816 31.6854 184.99 31.0057C186.164 30.3191 187.548 29.9759 189.141 29.9759C190.267 29.9759 191.296 30.1509 192.23 30.5011C193.164 30.8512 193.971 31.3696 194.65 32.0561C195.33 32.7427 195.859 33.5906 196.236 34.5998C196.614 35.6022 196.803 36.7521 196.803 38.0497V39.3061H183.054V36.3814H192.117C192.11 35.8459 191.983 35.3687 191.736 34.9499C191.489 34.5311 191.149 34.205 190.716 33.9716C190.291 33.7313 189.8 33.6112 189.244 33.6112C188.681 33.6112 188.176 33.7382 187.73 33.9922C187.283 34.2393 186.93 34.5792 186.669 35.0117C186.408 35.4374 186.271 35.9214 186.257 36.4638V39.44C186.257 40.0853 186.384 40.6518 186.638 41.1392C186.892 41.6198 187.253 41.994 187.719 42.2617C188.186 42.5295 188.742 42.6634 189.388 42.6634C189.834 42.6634 190.239 42.6016 190.603 42.478C190.967 42.3544 191.279 42.1725 191.54 41.9322C191.801 41.6919 191.997 41.3967 192.127 41.0465L196.751 41.1804C196.559 42.2171 196.137 43.1199 195.484 43.8888C194.839 44.6509 193.991 45.2448 192.941 45.6705C191.89 46.0893 190.675 46.2987 189.295 46.2987ZM213.185 35.0117L208.561 35.1353C208.513 34.8058 208.382 34.514 208.169 34.2599C207.956 33.9991 207.678 33.7965 207.335 33.6523C206.999 33.5013 206.607 33.4258 206.161 33.4258C205.578 33.4258 205.08 33.5425 204.668 33.7759C204.263 34.0094 204.064 34.3252 204.071 34.7234C204.064 35.0323 204.187 35.3001 204.441 35.5266C204.702 35.7532 205.166 35.9351 205.832 36.0724L208.88 36.6491C210.459 36.9512 211.633 37.4524 212.402 38.1527C213.178 38.853 213.569 39.7798 213.576 40.9332C213.569 42.018 213.246 42.962 212.608 43.7653C211.976 44.5685 211.111 45.1933 210.013 45.6396C208.914 46.079 207.658 46.2987 206.244 46.2987C203.985 46.2987 202.203 45.8352 200.899 44.9084C199.601 43.9747 198.86 42.7251 198.674 41.1598L203.648 41.0362C203.758 41.6129 204.043 42.0523 204.503 42.3544C204.963 42.6565 205.55 42.8075 206.264 42.8075C206.909 42.8075 207.435 42.6874 207.84 42.4471C208.245 42.2068 208.451 41.8875 208.458 41.4893C208.451 41.1323 208.293 40.8474 207.984 40.6346C207.675 40.4149 207.191 40.2433 206.532 40.1197L203.772 39.5945C202.186 39.3061 201.005 38.774 200.229 37.9982C199.454 37.2156 199.069 36.2201 199.076 35.0117C199.069 33.9544 199.351 33.0516 199.92 32.3033C200.49 31.5481 201.3 30.9714 202.351 30.5732C203.401 30.175 204.64 29.9759 206.068 29.9759C208.21 29.9759 209.899 30.4255 211.135 31.3249C212.371 32.2174 213.054 33.4464 213.185 35.0117ZM216.055 46V30.1818H221.091V46H216.055ZM218.578 28.3384C217.871 28.3384 217.264 28.105 216.756 27.6381C216.247 27.1644 215.993 26.5946 215.993 25.9286C215.993 25.2695 216.247 24.7066 216.756 24.2397C217.264 23.766 217.871 23.5291 218.578 23.5291C219.292 23.5291 219.9 23.766 220.401 24.2397C220.909 24.7066 221.163 25.2695 221.163 25.9286C221.163 26.5946 220.909 27.1644 220.401 27.6381C219.9 28.105 219.292 28.3384 218.578 28.3384ZM231.67 52.2614C230.166 52.2614 228.879 52.052 227.808 51.6332C226.737 51.2144 225.896 50.6411 225.285 49.9134C224.674 49.1856 224.307 48.3617 224.183 47.4418L228.951 47.174C229.041 47.4967 229.205 47.7782 229.446 48.0185C229.693 48.2588 230.012 48.4441 230.403 48.5746C230.802 48.705 231.268 48.7702 231.804 48.7702C232.648 48.7702 233.345 48.5643 233.894 48.1523C234.451 47.7473 234.729 47.0367 234.729 46.0206V43.2401H234.554C234.354 43.7275 234.052 44.1635 233.647 44.5479C233.242 44.9324 232.738 45.2345 232.133 45.4542C231.536 45.6739 230.85 45.7837 230.074 45.7837C228.92 45.7837 227.863 45.516 226.902 44.9805C225.948 44.4381 225.182 43.6005 224.605 42.4677C224.036 41.328 223.751 39.8622 223.751 38.0703C223.751 36.2235 224.046 34.7028 224.636 33.5082C225.227 32.3067 225.999 31.4176 226.953 30.8409C227.915 30.2642 228.948 29.9759 230.053 29.9759C230.884 29.9759 231.594 30.12 232.185 30.4084C232.782 30.6899 233.273 31.0537 233.658 31.5C234.042 31.9463 234.334 32.4097 234.533 32.8903H234.677V30.1818H239.692V46.0618C239.692 47.4006 239.356 48.5299 238.683 49.4499C238.01 50.3699 237.07 51.0668 235.861 51.5405C234.653 52.0211 233.256 52.2614 231.67 52.2614ZM231.824 42.1175C232.436 42.1175 232.957 41.9562 233.39 41.6335C233.822 41.3108 234.155 40.8474 234.389 40.2433C234.622 39.6391 234.739 38.9148 234.739 38.0703C234.739 37.2121 234.622 36.4741 234.389 35.8562C234.162 35.2314 233.829 34.7508 233.39 34.4144C232.957 34.078 232.436 33.9098 231.824 33.9098C231.2 33.9098 230.671 34.0814 230.239 34.4247C229.806 34.768 229.476 35.252 229.25 35.8768C229.03 36.4947 228.92 37.2259 228.92 38.0703C228.92 38.9148 229.034 39.6391 229.26 40.2433C229.487 40.8474 229.813 41.3108 230.239 41.6335C230.671 41.9562 231.2 42.1175 231.824 42.1175ZM247.939 36.9787V46H242.903V30.1818H247.692V33.0859H247.867C248.217 32.1179 248.814 31.3593 249.659 30.81C250.503 30.2539 251.509 29.9759 252.676 29.9759C253.788 29.9759 254.753 30.2264 255.57 30.7276C256.394 31.2219 257.032 31.9154 257.485 32.8079C257.945 33.6935 258.172 34.7302 258.165 35.918V46H253.129V36.9066C253.136 36.0278 252.913 35.3413 252.46 34.8469C252.013 34.3526 251.392 34.1055 250.596 34.1055C250.067 34.1055 249.6 34.2222 249.195 34.4556C248.797 34.6822 248.488 35.0083 248.268 35.4339C248.055 35.8596 247.946 36.3745 247.939 36.9787Z" fill="white"/>
</svg>
