<svg width="90" height="89" viewBox="0 0 90 89" fill="none" xmlns="http://www.w3.org/2000/svg">
<path d="M10.724 52.4358C10.5326 52.2792 10.2542 52.1747 10.2542 52.1747L1.30896 49.8079C0.960973 49.7035 0.578031 49.8079 0.31691 50.069C0.055789 50.3126 -0.0485545 50.6956 0.0210078 51.0435L2.03971 60.041C2.0745 60.1281 2.14406 60.3369 2.30083 60.5283L28.1446 87.364C28.9626 88.1993 30.0938 88.6693 31.2597 88.6518C32.6693 88.6343 34.0094 88.0602 35.0189 87.0681L36.011 86.1283C38.0646 84.1617 38.3083 81.0814 36.5678 79.2715L10.724 52.4358ZM9.94081 54.6288L31.7993 77.34L29.8501 79.2196L7.99166 56.5082L9.94081 54.6288ZM2.44013 52.2619L7.9048 53.689L5.78157 55.7252L3.67583 57.7789L2.44013 52.2619ZM4.5284 59.8324L6.47755 57.9528L28.3533 80.664L26.3867 82.5436L4.5284 59.8324ZM34.5489 84.6319L33.5744 85.5716C32.3561 86.7376 30.5984 86.9117 29.6586 85.9196L27.8487 84.04L33.2437 78.8365L35.0535 80.7161C36.0108 81.6907 35.7846 83.4484 34.5489 84.6319ZM89.195 51.2874C89.0656 51.1575 88.9036 51.0648 88.7261 51.0188C88.5485 50.9729 88.3619 50.9755 88.1857 51.0262L76.8213 53.9327C76.4384 54.0197 76.1427 54.3329 76.0556 54.7158C76.0556 54.7506 75.4813 57.3089 74.5067 59.0666C73.8972 60.1305 73.1861 61.133 72.3835 62.0599L70.243 62.6168C70.1211 62.6515 68.1024 64.0264 68.0675 64.0611L53.3792 79.2715C52.5089 80.1591 52.1087 81.3948 52.2305 82.7173C52.3698 84.0226 52.9789 85.2233 53.936 86.1283L54.9106 87.0681C55.9199 88.0602 57.2775 88.6345 58.6871 88.6518C59.853 88.6693 60.9669 88.1993 61.7849 87.364L76.2991 72.3798C76.3166 72.345 76.682 71.8402 77.0475 71.3009C77.413 70.7788 77.7609 70.2393 77.7784 70.187L78.3353 68.0465C79.2751 67.246 80.2844 66.5498 81.346 65.9407C83.1038 64.9662 85.6793 64.4266 85.6968 64.4093C86.0798 64.3397 86.393 64.0438 86.4973 63.6609L89.4558 52.2965C89.5067 52.1204 89.5094 51.9338 89.4635 51.7563C89.4176 51.5787 89.3249 51.4168 89.195 51.2874ZM60.2884 85.9196C59.3486 86.9117 57.5908 86.7376 56.3553 85.5716L55.3807 84.6319C54.7891 84.075 54.4062 83.3266 54.3191 82.5086C54.2321 81.8647 54.441 81.2034 54.876 80.7161L57.4169 78.0883L68.8161 66.2889L74.1241 71.6143L60.2884 85.9196ZM75.812 69.4737L75.4465 69.9785L70.4344 64.949L70.9391 64.5836L72.6273 64.1485L76.2472 67.7859L75.812 69.4737ZM84.6354 62.5297C83.6783 62.7559 81.816 63.2954 80.3368 64.0961C79.3275 64.6704 78.3702 65.3318 77.4654 66.0627L74.3676 62.9476C75.116 62.0601 75.7599 61.0855 76.3342 60.0762C77.1522 58.6143 77.6917 56.7522 77.9354 55.7949L85.0533 53.9851L82.7212 56.2997C82.4601 56.2127 82.1643 56.1604 81.8859 56.1604H81.8684C81.1898 56.1604 80.5284 56.4215 80.0586 56.9088C79.0492 57.9182 79.0492 59.5716 80.0761 60.5809C80.5634 61.0507 81.2073 61.3293 81.8686 61.3293C82.5821 61.3293 83.2261 61.0334 83.6959 60.5809C84.1657 60.1111 84.4617 59.4671 84.4617 58.7536C84.4617 58.4056 84.3921 58.0575 84.2528 57.7268L86.4631 55.5165L84.6354 62.5297ZM82.3903 58.736C82.3903 59.0492 82.1292 59.3103 81.816 59.3103C81.5028 59.3103 81.2417 59.0492 81.2417 58.736C81.2417 58.4227 81.5028 58.1616 81.816 58.1616C82.1467 58.1616 82.3903 58.4226 82.3903 58.736ZM45.9133 79.9852L45.8785 74.1725L45.6001 74.4336L78.1788 41.8549C78.5791 41.4719 78.5966 40.828 78.2136 40.4278L78.1788 40.393L63.3514 25.5481L65.9444 23.2857L66.2751 23.6337L67.7545 22.1544L66.2751 20.675L65.0917 21.8585L64.7958 21.5105L61.8721 24.0687L45.6001 7.79674C45.402 7.60426 45.1366 7.49658 44.8604 7.49658C44.5842 7.49658 44.3188 7.60426 44.1207 7.79674L27.7269 24.1906L24.6639 21.5105L23.9505 22.3285L22.8715 21.2495L21.3922 22.7289L22.8715 24.2082L23.672 23.4077L26.2478 25.6701L11.5421 40.3932C11.1419 40.7934 11.1419 41.4548 11.5421 41.855L43.7902 74.1031L43.825 80.0028H44.9389L43.6684 81.2733L45.1477 82.7526L46.6271 81.2733L45.3566 80.0028L45.9133 79.9852ZM54.5976 30.4382L51.2561 24.6778C53.3446 25.5654 55.2067 26.8881 56.7208 28.5761L54.5976 30.4382ZM58.0259 30.2121C59.888 32.8921 60.8625 36.077 60.8625 39.3487C60.8625 39.9578 60.8278 40.5494 60.7755 41.1412L55.659 32.283L58.0259 30.2121ZM63.6819 50.3476H45.7219L45.6523 41.0369L54.058 33.6928L63.6819 50.3476ZM45.7219 52.4358H54.0755C51.6216 54.1761 48.7326 55.1682 45.7394 55.3248L45.7219 52.4358ZM45.8437 71.2313L45.7567 57.4305C50.0966 57.22 54.2136 55.4458 57.3472 52.4358H64.6565L45.8437 71.2313ZM75.9686 41.1239L66.3272 50.7653L62.3767 43.9258C62.7591 42.4302 62.952 40.8925 62.951 39.3489C62.951 35.5897 61.785 31.9003 59.6095 28.8373L61.785 26.9404L75.9686 41.1239ZM44.8691 10.0243L60.3057 25.4436L58.287 27.2013C55.9724 24.6431 52.9964 22.8157 49.6724 21.9107L45.7742 15.1583C45.6824 14.9995 45.5505 14.8676 45.3916 14.7759C45.2328 14.6843 45.0525 14.6361 44.8691 14.6362C44.4862 14.6362 44.1557 14.8276 43.9641 15.1583L40.0658 21.9107C36.6896 22.833 33.6441 24.7126 31.3295 27.3406L29.3108 25.5656L44.8691 10.0243ZM26.0562 50.3476L35.5932 33.8319L43.5639 40.8105L43.6334 50.3476H26.0562ZM43.6509 55.3075C40.7758 55.0987 38.0129 54.1055 35.6628 52.436H43.6334L43.6509 55.3075ZM28.8581 39.3487C28.8581 36.1465 29.8152 33.014 31.6077 30.3687L33.9919 32.4396L28.9624 41.1412C28.893 40.5462 28.8582 39.9477 28.8581 39.3487ZM35.0537 30.5948L32.8957 28.7153C34.4446 26.975 36.3415 25.6002 38.4647 24.6777L35.0537 30.5948ZM13.7522 41.1239L27.8314 27.0622L30.0242 28.9766C27.904 32.0197 26.7682 35.6399 26.7698 39.3489C26.7698 40.8978 26.9612 42.4292 27.3615 43.9258L23.3936 50.7653L13.7522 41.1239ZM25.0816 52.4358H32.3736C35.4366 55.377 39.4393 57.1346 43.6682 57.4132L43.7553 71.127L25.0816 52.4358ZM44.7298 39.053L36.6548 31.9873L44.8691 17.769L52.9964 31.8482L44.7298 39.053Z" fill="white"/>
<path d="M40.7219 78.8197L42.1988 77.3428L43.6754 78.8197L42.1987 80.2966L40.7219 78.8197ZM46.6239 78.2676L48.1008 76.7909L49.5773 78.2678L48.1006 79.7443L46.6239 78.2676ZM37.7683 75.8986L39.2452 74.4217L40.7218 75.8986L39.245 77.3755L37.7683 75.8986ZM49.57 75.3072L51.0469 73.8305L52.5236 75.3074L51.0467 76.7841L49.57 75.3072ZM34.8077 72.9349L36.2846 71.458L37.7612 72.9349L36.2845 74.4118L34.8077 72.9349ZM52.5287 72.3833L54.0056 70.9064L55.4821 72.3833L54.0054 73.86L52.5287 72.3833ZM31.8646 69.9636L33.3415 68.4871L34.8182 69.9638L33.3413 71.4405L31.8646 69.9636ZM55.4924 69.4227L56.9691 67.946L58.4458 69.4229L56.9689 70.8994L55.4924 69.4227ZM28.9114 67.0422L30.3881 65.5653L31.865 67.0422L30.3881 68.5189L28.9114 67.0422ZM58.4264 66.4499L59.9031 64.973L61.38 66.4499L59.9031 67.9268L58.4264 66.4499ZM25.9508 64.0784L27.4275 62.6016L28.9042 64.0784L27.4273 65.5552L25.9508 64.0784ZM61.3973 63.4889L62.874 62.012L64.3508 63.4889L62.8739 64.9658L61.3973 63.4889ZM22.9904 61.1149L24.4669 59.638L25.9438 61.1149L24.4669 62.5916L22.9904 61.1149ZM64.3485 60.5482L65.8254 59.0714L67.3021 60.5482L65.8252 62.025L64.3485 60.5482ZM20.0471 58.144L21.5238 56.6671L23.0005 58.144L21.5236 59.6207L20.0471 58.144ZM67.3 57.5927L68.7767 56.1158L70.2534 57.5927L68.7765 59.0694L67.3 57.5927ZM17.0936 55.2224L18.5704 53.7455L20.0472 55.2224L18.5704 56.6991L17.0936 55.2224ZM70.2658 54.6447L71.7425 53.1678L73.2193 54.6447L71.7424 56.1216L70.2658 54.6447ZM14.133 52.2584L15.6098 50.7819L17.0866 52.2586L15.6098 53.7353L14.133 52.2584ZM73.2046 51.6906L74.6815 50.2139L76.1582 51.6908L74.6813 53.1675L73.2046 51.6906ZM11.1898 49.2877L12.6666 47.811L14.1432 49.2879L12.6665 50.7644L11.1898 49.2877ZM76.1563 48.7359L77.633 47.259L79.1097 48.7359L77.6328 50.2126L76.1563 48.7359ZM8.2365 46.3659L9.71339 44.889L11.1899 46.3659L9.71321 47.8426L8.2365 46.3659ZM79.1025 45.7753L80.5792 44.2985L82.056 45.7753L80.5791 47.2521L79.1025 45.7753ZM5.27573 43.4024L6.75262 41.9256L8.22933 43.4025L6.75244 44.8791L5.27573 43.4024ZM82.0732 42.8144L83.5501 41.3375L85.0269 42.8144L83.55 44.2911L82.0732 42.8144ZM82.5095 39.8797L83.9862 38.4028L85.4631 39.8797L83.9862 41.3564L82.5095 39.8797ZM6.63412 37.4917L8.11101 36.0148L9.58754 37.4917L8.11083 38.9684L6.63412 37.4917ZM3.79395 40.3063L5.27066 38.8294L6.74755 40.3063L5.27066 41.783L3.79395 40.3063ZM79.5734 36.9084L81.0501 35.4315L82.5268 36.9084L81.0499 38.3851L79.5734 36.9084ZM9.59768 34.5555L11.0744 33.0788L12.5511 34.5557L11.0742 36.0324L9.59768 34.5555ZM76.6077 33.9573L78.0846 32.4807L79.5613 33.9574L78.0844 35.4343L76.6077 33.9573ZM12.5317 31.5827L14.0086 30.106L15.4851 31.5829L14.0084 33.0594L12.5317 31.5827ZM73.6473 31.0112L75.124 29.5343L76.6007 31.0112L75.1238 32.4879L73.6473 31.0112ZM15.4951 28.6221L16.972 27.1452L18.4487 28.6221L16.9718 30.099L15.4951 28.6221ZM70.7162 28.0525L72.1931 26.5756L73.6697 28.0525L72.193 29.5292L70.7162 28.0525ZM18.4539 25.6811L19.9307 24.2042L21.4074 25.6811L19.9305 27.1578L18.4539 25.6811ZM67.7556 25.0889L69.2325 23.6122L70.7091 25.0891L69.2324 26.5656L67.7556 25.0889ZM24.3515 19.7651L25.8283 18.2883L27.3051 19.7651L25.8283 21.2417L24.3515 19.7651ZM61.8345 19.2036L63.3113 17.7267L64.7881 19.2036L63.3112 20.6805L61.8345 19.2036ZM27.31 16.817L28.7869 15.3401L30.2635 16.817L28.7868 18.2937L27.31 16.817ZM58.8985 16.2327L60.3754 14.7558L61.8521 16.2327L60.3752 17.7094L58.8985 16.2327ZM30.2738 13.8807L31.7505 12.4038L33.2272 13.8807L31.7503 15.3574L30.2738 13.8807ZM55.9328 13.2813L57.4096 11.8046L58.8863 13.2815L57.4094 14.7581L55.9328 13.2813ZM33.2076 10.9078L34.6843 9.43112L36.1612 10.908L34.6843 12.3847L33.2076 10.9078ZM52.9896 10.3349L54.4663 8.85801L55.9432 10.3349L54.4663 11.8118L52.9896 10.3349ZM36.1714 7.94723L37.6481 6.47052L39.125 7.94741L37.6481 9.42395L36.1714 7.94723ZM50.0414 7.37658L51.5183 5.89969L52.995 7.37658L51.5181 8.85329L50.0414 7.37658ZM39.1299 5.02369L40.6068 3.54681L42.0833 5.02369L40.6066 6.50041L39.1299 5.02369ZM47.0757 4.42507L48.5524 2.94818L50.0291 4.42507L48.5522 5.90179L47.0757 4.42507ZM44.8689 2.21009L45.5999 2.9585L47.079 1.47916L45.5999 0L44.2946 1.32256L43.5462 0.574326L42.067 2.05349L43.5462 3.53282L44.8689 2.21009Z" fill="white"/>
</svg>
