<svg width="90" height="90" viewBox="0 0 90 90" fill="none" xmlns="http://www.w3.org/2000/svg">
<path d="M83.722 17.3218V15.6012L78.3811 2.25039C77.837 0.883412 76.5335 0 75.0611 0C73.5888 0 72.2853 0.883412 71.7411 2.25039L66.4002 15.6012V17.3218H25.8975C25.1772 10.8362 19.6675 5.77393 12.9914 5.77393C5.82734 5.77393 0 11.6027 0 18.7653V76.5046C0 83.6672 5.82734 89.496 12.9914 89.496H89.496V17.3218H83.722ZM74.4231 3.32001V3.31857C74.6324 2.79458 75.4913 2.7917 75.7006 3.32001L80.148 14.4348H69.9772L74.4231 3.32001ZM80.8351 17.3218V47.6349H76.5046V17.3218H80.8351ZM69.2872 17.3218H73.6177V47.6349H69.2872V17.3218ZM69.2872 50.5219H80.8351V56.2958C80.8351 57.0912 80.1884 57.7393 79.3916 57.7393H70.7307C69.9339 57.7393 69.2872 57.0912 69.2872 56.2958V50.5219ZM25.9827 63.4021C27.253 63.2188 28.4814 62.8031 29.5929 62.1607L28.1465 59.662C27.4753 60.0503 26.7405 60.3116 25.9827 60.4661V46.3373C29.2724 47.0085 31.7566 49.9229 31.7566 53.4089C31.756 55.1109 31.1543 56.7581 30.0577 58.0598L32.2647 59.9204C33.8003 58.0981 34.6428 55.7919 34.6436 53.4089C34.6436 48.3293 30.8703 44.1244 25.9827 43.42V40.5027C32.4683 41.2244 37.5306 46.7342 37.5306 53.4089C37.5306 60.0835 32.4683 65.5948 25.9827 66.3151V63.4021ZM25.9827 76.5046V69.2136C34.0633 68.4817 40.4175 61.6772 40.4175 53.4089C40.4175 45.1406 34.0633 38.336 25.9827 37.6042V25.9827H28.8697V32.1882L29.9523 32.4683C31.9063 32.9719 33.78 33.7474 35.5184 34.7721L36.4826 35.3422L40.8693 30.9541L46.994 37.0788L42.6073 41.4655L43.176 42.4283C44.198 44.1605 44.9732 46.0327 45.4798 47.9958L45.7599 49.0784H51.9654V57.7393H45.7599L45.4798 58.8219C44.9765 60.7765 44.201 62.6507 43.176 64.3895L42.6073 65.3523L46.994 69.739L40.8693 75.8637L36.4826 71.4755L35.5184 72.0457C33.7803 73.071 31.9065 73.8465 29.9523 74.3495L28.8697 74.6295V80.8351H25.2249C25.707 79.4782 25.9827 78.0246 25.9827 76.5046ZM2.88697 18.7653C2.88697 13.1934 7.42095 8.6609 12.9914 8.6609C18.5618 8.6609 23.0957 13.1934 23.0957 18.7653V68.3576C20.7125 65.4071 17.0706 63.5133 12.9914 63.5133C8.91207 63.5133 5.27016 65.4071 2.88697 68.3576V18.7653ZM12.9914 86.609C7.42095 86.609 2.88697 82.0765 2.88697 76.5046C2.88697 70.9328 7.42095 66.4002 12.9914 66.4002C18.5618 66.4002 23.0957 70.9328 23.0957 76.5046C23.0957 82.0765 18.5618 86.609 12.9914 86.609ZM86.609 86.609H21.1384C22.1607 85.785 23.0532 84.8118 23.7857 83.722H31.7566V76.8395C33.2251 76.3891 34.6475 75.8004 36.0048 75.0813L40.8693 79.9473L51.0762 69.7404L46.2117 64.8745C46.9296 63.5168 47.5178 62.0945 47.9684 60.6263H54.8524V46.1915H47.9684C47.5184 44.7231 46.9302 43.3006 46.2117 41.9433L51.0762 37.0773L40.8693 26.8704L36.0048 31.7364C34.6474 31.0176 33.225 30.429 31.7566 29.9783V23.0957H25.9827V20.2088H66.4002V56.2958C66.4002 58.6834 68.3432 60.6263 70.7307 60.6263H79.3916C81.7791 60.6263 83.722 58.6834 83.722 56.2958V20.2088H86.609V86.609Z" fill="#0B8FCF"/>
<path d="M54.8525 83.7224H83.7222V63.5137H54.8525V83.7224ZM57.7395 66.4006H80.8352V80.8355H57.7395V66.4006Z" fill="#0B8FCF"/>
<path d="M66.3997 69.2871H77.9476V72.1741H66.3997V69.2871ZM60.6258 69.2871H63.5128V72.1741H60.6258V69.2871ZM60.6258 75.061H72.1737V77.948H60.6258V75.061ZM75.0606 75.061H77.9476V77.948H75.0606V75.061ZM12.9909 69.2871C9.01117 69.2871 5.77344 72.5248 5.77344 76.5045C5.77344 80.4842 9.01117 83.7219 12.9909 83.7219V80.835C10.6033 80.835 8.6604 78.892 8.6604 76.5045C8.6604 74.117 10.6033 72.1741 12.9909 72.1741C15.3784 72.1741 17.3213 74.117 17.3213 76.5045H20.2083C20.2083 72.5248 16.9705 69.2871 12.9909 69.2871Z" fill="#0B8FCF"/>
</svg>
