<svg width="72" height="72" viewBox="0 0 72 72" fill="none" xmlns="http://www.w3.org/2000/svg">
<path d="M71.5134 20.511L46.1453 5.86475C45.9974 5.77928 45.8296 5.73427 45.6588 5.73425H31.2922C30.7547 5.73425 30.3192 6.16977 30.3192 6.70724C30.3192 7.24471 30.7547 7.68022 31.2922 7.68022H42.0276L20.0296 20.3805H0.973266C0.435797 20.3805 0.00028125 20.816 0.00028125 21.3535C0.00028125 21.8909 0.435797 22.3265 0.973266 22.3265H19.3172V35.027H7.69894C7.16147 35.027 6.72595 35.4625 6.72595 36C6.72595 36.5375 7.16147 36.973 7.69894 36.973H19.3172V49.6735H0.972984C0.435516 49.6735 0 50.109 0 50.6465C0 51.184 0.435516 51.6195 0.972984 51.6195H20.0296L45.1724 66.1352C45.3202 66.2208 45.488 66.2658 45.6588 66.2658C45.8296 66.2658 45.9974 66.2208 46.1453 66.1352L71.5134 51.489C71.6614 51.4036 71.7842 51.2808 71.8696 51.1329C71.955 50.9851 71.9999 50.8173 71.9999 50.6465V21.3535C71.9999 21.1827 71.955 21.0149 71.8696 20.867C71.7842 20.7191 71.6614 20.5963 71.5134 20.511ZM45.6586 7.83069L69.0812 21.3538L61.6622 25.6371L38.2399 12.1137L45.6586 7.83069ZM36.2942 13.237L59.7163 26.7604L55.023 29.4701L31.6003 15.947L36.2942 13.237ZM60.6898 28.4456V37.4358L55.9963 40.1456V31.1553L60.6898 28.4456ZM44.6858 63.6076L21.2632 50.085V23.0387L44.6858 36.5616V63.6076ZM45.6587 34.8765L22.2358 21.3535L29.6546 17.0703L53.0771 30.5935L45.6587 34.8765ZM70.054 50.0847L46.6317 63.6076V36.5616L54.0502 32.2785V41.8306C54.0503 42.0013 54.0953 42.169 54.1807 42.3169C54.2661 42.4647 54.3889 42.5875 54.5368 42.6728C54.6846 42.7582 54.8524 42.8032 55.0231 42.8032C55.1938 42.8032 55.3616 42.7584 55.5095 42.6731L62.1489 38.8401C62.2969 38.7547 62.4197 38.6319 62.5051 38.484C62.5905 38.3361 62.6354 38.1683 62.6354 37.9976V27.3217L70.0536 23.0387V50.0847H70.054ZM6.72595 6.70724C6.72593 6.57946 6.75109 6.45293 6.79998 6.33487C6.84887 6.21681 6.92054 6.10955 7.01089 6.01919C7.10125 5.92884 7.20851 5.85717 7.32657 5.80828C7.44463 5.75939 7.57116 5.73423 7.69894 5.73425H22.8032C23.3407 5.73425 23.7762 6.16977 23.7762 6.70724C23.7762 7.24471 23.3407 7.68022 22.8032 7.68022H7.69894C7.57115 7.68026 7.44461 7.65512 7.32655 7.60623C7.20848 7.55735 7.10121 7.48568 7.01085 7.39532C6.92049 7.30497 6.84883 7.19769 6.79994 7.07963C6.75106 6.96156 6.72592 6.83502 6.72595 6.70724Z" fill="black"/>
</svg>
