<?xml version="1.0" encoding="UTF-8"?>
<svg id="Layer_2" data-name="Layer 2" xmlns="http://www.w3.org/2000/svg" viewBox="0 0 493.69 326.18">
  <defs>
    <style>
      .cls-1 {
        fill: #0b8fcf;
      }

      .cls-1, .cls-2 {
        stroke-width: 0px;
      }

      .cls-2 {
        fill: #fff;
      }
    </style>
  </defs>
  <g id="Layer_1-2" data-name="Layer 1">
    <g>
      <path class="cls-1" d="M306.14,120.38c1.37,0,2.14,1.57,1.31,2.66l-124.06,161.75-22.45,29.27h0c-12.4,16.17-36.78,16.18-49.18,0h0s-18.79-24.51-18.79-24.51l47.03-61.33,82.22-107.19c.31-.41.8-.65,1.31-.65h82.62Z"/>
      <path class="cls-2" d="M85.77,157.52l54.23,70.69-47.03,61.33-54.23-70.69-31.86-41.54c-9.16-11.94-9.16-28.54,0-40.48l12.62-16.45,18.9-24.64,3.17-4.13L110.76,1.38c.67-.87,1.7-1.38,2.79-1.38h85.91c2.91,0,4.56,3.34,2.79,5.66l-65.92,85.96-22.07,28.77-28.49,37.14Z"/>
      <path class="cls-1" d="M392.62,11.99l-45.67,59.55-14.42,18.8c-.61.8-1.57,1.27-2.58,1.27h-78.6c-2.69,0-4.22-3.09-2.58-5.23l54.79-71.42,8.79-11.47c1.69-2.21,4.31-3.5,7.1-3.5h48.86c9.53,0,18.51,4.43,24.31,11.99h0Z"/>
      <path class="cls-2" d="M486.71,134.67c9.31,12.14,9.31,29.01,0,41.14l-29.89,38.97-72.19,94.13c-2.49,3.24-6.34,5.14-10.43,5.14h-86.6c-1.71,0-2.68-1.96-1.64-3.32l122.22-159.34-23.78-31.01-22.06-28.77-15.4-20.07,45.67-59.55,61.07,79.63.16.22,21.9,28.55,10.96,14.29Z"/>
    </g>
  </g>
</svg>