<svg width="40" height="38" viewBox="0 0 40 38" fill="none" xmlns="http://www.w3.org/2000/svg">
<path fill-rule="evenodd" clip-rule="evenodd" d="M23.5905 35.0851C23.5905 33.7282 22.4905 32.6282 21.1336 32.6282H18.1251C17.4735 32.6282 16.8486 32.8871 16.3878 33.3478C15.9271 33.8086 15.6682 34.4335 15.6682 35.0851C15.6682 36.442 16.7682 37.542 18.1251 37.542H21.1336C22.4905 37.542 23.5905 36.442 23.5905 35.0851ZM5.16506 28.7498C5.57543 28.7812 6.07192 28.7992 6.57063 28.77C6.88322 30.3549 7.73633 31.7823 8.98429 32.8082C10.2322 33.8341 11.7976 34.395 13.4132 34.395H14.3506C14.2673 34.8513 14.2671 35.3188 14.35 35.7752H13.4132C11.4278 35.7752 9.50731 35.0681 7.99589 33.7808C6.48447 32.4934 5.48091 30.7099 5.16506 28.7498ZM4.463 27.2812C3.21522 27.0708 2.08231 26.4252 1.2653 25.4589C0.448286 24.4926 6.22644e-06 23.2681 0 22.0027L0 18.7407C-1.45649e-10 17.321 0.563964 15.9594 1.56783 14.9555C2.57169 13.9517 3.93323 13.3877 5.35292 13.3877H5.70924C6.27879 6.1987 12.2935 0.541992 19.6294 0.541992C26.9652 0.541992 32.98 6.1987 33.5495 13.3877H33.9058C35.3255 13.3877 36.6871 13.9517 37.6909 14.9555C38.6948 15.9594 39.2588 17.321 39.2588 18.7407V22.0027C39.2588 23.4224 38.6948 24.784 37.6909 25.7878C36.6871 26.7917 35.3255 27.3557 33.9058 27.3557H32.3262C31.6711 27.3557 31.14 26.8246 31.14 26.1695V14.5063C31.14 8.14914 25.9865 2.99566 19.6294 2.99566C13.2722 2.99566 8.11874 8.14914 8.11874 14.5063V26.1695C8.11874 26.632 7.85398 27.0328 7.46768 27.2284C6.40431 27.5974 4.75522 27.3305 4.463 27.2812Z" fill="white"/>
</svg>
