<svg width="1920" height="509" viewBox="0 0 1920 509" fill="none" xmlns="http://www.w3.org/2000/svg">
<mask id="mask0_45_6" style="mask-type:alpha" maskUnits="userSpaceOnUse" x="-236" y="161" width="2391" height="1349">
<ellipse cx="959.882" cy="835.6" rx="1194.99" ry="673.721" fill="#D9D9D9"/>
</mask>
<g mask="url(#mask0_45_6)">
<path d="M-115.998 1911.48V-240.561M-74.6127 1911.48V-240.561M-33.2273 1911.48V-240.561M8.15808 1911.48V-240.561M49.5435 1911.48V-240.561M90.9289 1911.48V-240.561M132.314 1911.48V-240.561M173.7 1911.48V-240.561M215.085 1911.48V-240.561M256.47 1911.48V-240.561M297.856 1911.48V-240.561M339.241 1911.48V-240.561M380.627 1911.48V-240.561M422.012 1911.48V-240.561M463.398 1911.48V-240.561M504.783 1911.48V-240.561M546.168 1911.48V-240.561M587.554 1911.48V-240.561M628.939 1911.48V-240.561M670.325 1911.48V-240.561M711.71 1911.48V-240.561M753.095 1911.48V-240.561M794.481 1911.48V-240.561M835.866 1911.48V-240.561M877.252 1911.48V-240.561M918.637 1911.48V-240.561M960.022 1911.48V-240.561M-116.278 835.74L2035.76 835.74M-116.278 877.125L2035.76 877.125M-116.278 918.51L2035.76 918.511M-116.278 959.896L2035.76 959.896M-116.278 1001.28H2035.76M-116.278 1042.67H2035.76M-116.278 1084.05H2035.76M-116.278 1125.44H2035.76M-116.278 1166.82L2035.76 1166.82M-116.278 1208.21H2035.76M-116.278 1249.59H2035.76M-116.278 1290.98H2035.76M-116.278 1332.36H2035.76M-116.278 1373.75H2035.76M-116.278 1415.14H2035.76M-116.278 1456.52L2035.76 1456.52M-116.278 1497.91L2035.76 1497.91M-116.278 1539.29L2035.76 1539.29M-116.278 1580.68H2035.76M-116.278 1622.06H2035.76M-116.278 1663.45H2035.76M-116.278 1704.83H2035.76M-116.278 1746.22L2035.76 1746.22M-116.278 1787.6L2035.76 1787.6M-116.278 1828.99L2035.76 1828.99M-116.278 1870.37H2035.76M-116.278 1911.76H2035.76M-116.278 -240.281L2035.76 -240.281M-116.278 -198.895L2035.76 -198.895M-116.278 -157.51L2035.76 -157.51M-116.278 -116.125L2035.76 -116.124M-116.278 -74.7391L2035.76 -74.7391M-116.278 -33.3537L2035.76 -33.3537M-116.278 8.03166L2035.76 8.03171M-116.278 49.4171L2035.76 49.4171M-116.278 90.8025L2035.76 90.8025M-116.278 132.188L2035.76 132.188M-116.278 173.573L2035.76 173.573M-116.278 214.959L2035.76 214.959M-116.278 256.344L2035.76 256.344M-116.278 297.729L2035.76 297.73M-116.278 339.115L2035.76 339.115M-116.278 380.5L2035.76 380.5M-116.278 421.886L2035.76 421.886M-116.278 463.271L2035.76 463.271M-116.278 504.656L2035.76 504.656M-116.278 546.042L2035.76 546.042M-116.278 587.427L2035.76 587.427M-116.278 628.813L2035.76 628.813M-116.278 670.198L2035.76 670.198M-116.278 711.583L2035.76 711.584M-116.278 752.969L2035.76 752.969M-116.278 794.354L2035.76 794.354M1001.41 1911.48V-240.561M1042.79 1911.48V-240.561M1084.18 1911.48V-240.561M1125.56 1911.48V-240.561M1166.95 1911.48V-240.561M1208.33 1911.48V-240.561M1249.72 1911.48V-240.561M1291.11 1911.48V-240.561M1332.49 1911.48V-240.561M1373.88 1911.48V-240.561M1415.26 1911.48V-240.561M1456.65 1911.48V-240.561M1498.03 1911.48V-240.561M1539.42 1911.48V-240.561M1580.8 1911.48V-240.561M1622.19 1911.48V-240.561M1663.57 1911.48V-240.561M1704.96 1911.48V-240.561M1746.34 1911.48V-240.561M1787.73 1911.48V-240.561M1829.12 1911.48V-240.561M1870.5 1911.48V-240.561M1911.89 1911.48V-240.561M1953.27 1911.48V-240.561M1994.66 1911.48V-240.561M2036.04 1911.48V-240.561" stroke="white" stroke-opacity="0.35" stroke-width="1.121"/>
</g>
</svg>
