<svg width="45" height="46" viewBox="0 0 45 46" fill="none" xmlns="http://www.w3.org/2000/svg">
<path d="M14.1668 24.2434L6.41944 26.5833C6.04819 26.6973 5.74444 26.9647 5.58582 27.3174L0.121022 39.4347C-0.352827 40.4847 0.642797 41.5991 1.75351 41.2618L12.7884 37.8259C13.2822 37.6754 13.6436 37.2633 13.728 36.7575L15.9018 25.7349C16.0622 24.7545 15.1242 23.9479 14.1668 24.2434ZM27.1774 31.4079L24.421 35.0404C24.0271 35.4886 23.3197 35.4776 22.9431 35.0153L18.3362 28.8283C17.8158 28.1918 16.7824 28.4539 16.6373 29.2602L15.2535 36.9581C15.1624 37.4692 15.4968 37.9582 16.0088 38.0612L28.8831 40.6602C29.5382 40.7925 30.1275 40.2383 30.0276 39.5821L28.8578 31.8912C28.7339 31.0863 27.7157 30.7938 27.1774 31.4079ZM44.6582 34.9789L38.1883 24.7488C37.7057 23.983 36.7975 23.5872 35.8987 23.7474L32.7866 24.4009C32.1946 24.5065 31.6715 24.8464 31.334 25.3395L30.1275 27.1111C29.8126 27.5734 29.686 28.139 29.7744 28.6919L31.3509 38.5405C31.5507 39.7924 32.7714 40.6227 34.0229 40.3553L43.2353 38.3132C44.7483 37.9917 45.4796 36.2785 44.6582 34.9789ZM14.8698 20.884L14.9359 20.9829L17.8988 25.3382L21.3271 30.3633L23.6812 33.816L26.0366 30.3619L28.0856 27.3592L29.496 25.2894C29.4977 25.288 29.4977 25.2867 29.499 25.285L32.4957 20.881H32.4943C33.5855 19.2447 34.224 17.2876 34.224 15.179C34.224 9.4255 29.5044 4.76074 23.6812 4.76074C17.8607 4.76074 13.1401 9.4255 13.1401 15.179C13.1401 17.2876 13.78 19.2474 14.8725 20.884H14.8698ZM23.7193 8.40998C27.0407 8.40998 29.7437 11.0855 29.7437 14.3754C29.7437 17.6653 27.0407 20.3421 23.7193 20.3421C20.3977 20.3421 17.695 17.6653 17.695 14.3754C17.695 11.0855 20.3977 8.40998 23.7193 8.40998Z" fill="white"/>
</svg>
