<svg width="72" height="72" viewBox="0 0 72 72" fill="none" xmlns="http://www.w3.org/2000/svg">
<path d="M52.1622 14.3509C52.1548 14.1944 52.1147 14.0411 52.0446 13.9009C51.9745 13.7608 51.8759 13.6368 51.7551 13.537C47.9786 10.4071 43.3525 8.47788 38.4712 7.9972C37.6625 7.91677 36.84 7.87655 36.018 7.87584C36.012 7.87584 36.0061 7.875 36 7.875C35.994 7.875 35.9882 7.87584 35.9822 7.87584C35.1598 7.87584 34.3375 7.91677 33.5294 7.9972C29.8615 8.35717 26.321 9.53535 23.1688 11.445C20.0165 13.3546 17.3328 15.9469 15.3152 19.0312L15.3066 19.0437C12.4067 23.4642 10.9981 28.6969 11.287 33.9758C11.5759 39.2547 13.5472 44.3025 16.9121 48.3801C17.0119 48.501 17.1358 48.5997 17.2759 48.67C17.4161 48.7402 17.5694 48.7803 17.7259 48.7879C17.7438 48.7887 17.7615 48.789 17.7794 48.789C18.0777 48.789 18.3638 48.6705 18.5747 48.4597L51.8344 15.1997C51.9451 15.0889 52.0315 14.9561 52.0879 14.8099C52.1444 14.6638 52.1697 14.5074 52.1622 14.3509ZM32.3516 31.5H25.4453C25.5407 28.6284 26.0097 25.7815 26.8403 23.031C29.5054 23.3766 32.1879 23.5715 34.875 23.6149V28.9766L32.3516 31.5ZM13.5312 31.5C13.7103 27.7782 14.8162 24.16 16.7485 20.9741C19.3275 21.6983 21.9455 22.2761 24.5898 22.7047C23.7559 25.566 23.287 28.5212 23.1944 31.5H13.5312ZM34.1729 10.1997C34.4062 10.1808 34.6402 10.1644 34.875 10.1528V21.3649C32.4363 21.3244 30.0014 21.1551 27.5805 20.8575C29.0724 16.9141 31.3107 13.2955 34.1729 10.1997ZM30.1018 33.75L25.8621 37.9896C25.6332 36.5867 25.4943 35.1706 25.4461 33.75H30.1018ZM37.125 23.615C38.2031 23.5979 39.2822 23.556 40.3623 23.4894L37.125 26.7266V23.615ZM42.817 21.0347C40.925 21.2232 39.0261 21.3333 37.125 21.3646V10.1531C37.3601 10.1647 37.5944 10.1812 37.8281 10.2C40.4375 13.0263 42.5314 16.2881 44.0147 19.8373L42.817 21.0347ZM30.7547 10.7395C28.4195 13.6901 26.5764 16.9987 25.2966 20.5373C22.8682 20.1569 20.4619 19.6468 18.088 19.0093C21.2221 14.8657 25.7004 11.9419 30.7547 10.7395ZM17.8829 45.9689C15.266 42.4104 13.7522 38.1615 13.5294 33.75H23.1944C23.2605 35.8235 23.5081 37.8872 23.9342 39.9175L17.8829 45.9689ZM45.7259 18.1252C44.5422 15.4876 43.0369 13.0066 41.2442 10.7385C44.1705 11.4364 46.9256 12.7183 49.3442 14.5073L45.7259 18.1252ZM56.694 19.0447C56.1986 18.2912 55.6624 17.5653 55.088 16.8702C54.9882 16.7494 54.8643 16.6507 54.7241 16.5806C54.584 16.5105 54.4307 16.4704 54.2742 16.4629C54.1176 16.4555 53.9612 16.4808 53.8151 16.5373C53.6689 16.5938 53.5361 16.6802 53.4253 16.791L20.1656 50.0503C20.0548 50.1611 19.9684 50.2938 19.9118 50.44C19.8553 50.5862 19.83 50.7425 19.8374 50.8991C19.8448 51.0556 19.8849 51.2089 19.955 51.3491C20.0251 51.4892 20.1237 51.6132 20.2445 51.713C24.021 54.8429 28.6471 56.7721 33.5284 57.2528C35.0981 57.4075 36.679 57.4145 38.25 57.2738V63C38.25 63.2263 38.3183 63.4474 38.4459 63.6343C38.5736 63.8212 38.7546 63.9653 38.9654 64.0477C39.1761 64.1301 39.4069 64.147 39.6274 64.0962C39.848 64.0454 40.0481 63.9293 40.2016 63.763L50.291 52.8328C55.5282 49.128 59.1227 43.5349 60.3171 37.232C61.5115 30.9291 60.2126 24.4086 56.694 19.0446V19.0447ZM48.8994 51.0609C48.8337 51.1071 48.7731 51.1601 48.7186 51.2191L40.5 60.1227V56.0094C40.5 55.8482 40.4654 55.6889 40.3985 55.5422C40.3315 55.3956 40.2339 55.265 40.1121 55.1594C39.9903 55.0538 39.8473 54.9756 39.6926 54.9301C39.538 54.8846 39.3754 54.8728 39.2158 54.8956C38.8752 54.9444 38.5588 54.983 38.2482 55.0138C36.7529 55.1616 35.2466 55.1616 33.7513 55.0138C29.7349 54.6185 25.9007 53.1425 22.656 50.7427L54.1173 19.2811C54.3595 19.6092 54.5917 19.9424 54.8138 20.2807C58.0226 25.1735 59.1997 31.1236 58.0956 36.8696C56.9916 42.6157 53.693 47.7058 48.8994 51.0609Z" fill="black"/>
<path d="M36 46.125C37.2426 46.125 38.25 45.1176 38.25 43.875C38.25 42.6324 37.2426 41.625 36 41.625C34.7574 41.625 33.75 42.6324 33.75 43.875C33.75 45.1176 34.7574 46.125 36 46.125Z" fill="black"/>
<path d="M42.75 46.125C43.9926 46.125 45 45.1176 45 43.875C45 42.6324 43.9926 41.625 42.75 41.625C41.5074 41.625 40.5 42.6324 40.5 43.875C40.5 45.1176 41.5074 46.125 42.75 46.125Z" fill="black"/>
<path d="M49.5 46.125C50.7426 46.125 51.75 45.1176 51.75 43.875C51.75 42.6324 50.7426 41.625 49.5 41.625C48.2574 41.625 47.25 42.6324 47.25 43.875C47.25 45.1176 48.2574 46.125 49.5 46.125Z" fill="black"/>
<path d="M11.2489 47.8212C10.9529 47.7842 10.6542 47.8664 10.4187 48.0496C10.1832 48.2327 10.0301 48.502 9.99314 48.798L9.89807 49.5574C5.88508 43.9033 4.0108 37.0077 4.60947 30.1002C5.20815 23.1927 8.24085 16.7223 13.1668 11.843C13.2724 11.7392 13.3564 11.6156 13.4142 11.4792C13.4719 11.3428 13.5021 11.1963 13.5031 11.0482C13.504 10.9001 13.4758 10.7533 13.4199 10.6162C13.364 10.479 13.2816 10.3543 13.1773 10.249C13.0731 10.1438 12.9491 10.0602 12.8125 10.003C12.6759 9.94585 12.5294 9.91619 12.3813 9.91578C12.2332 9.91536 12.0864 9.94418 11.9495 10.0006C11.8126 10.057 11.6881 10.1399 11.5833 10.2445C6.29054 15.4869 3.02692 22.4354 2.37201 29.8561C1.71711 37.2768 3.7133 44.6895 8.00611 50.7779L7.05548 50.6372C6.90933 50.6156 6.76035 50.623 6.61704 50.6589C6.47374 50.6948 6.33891 50.7586 6.22026 50.8467C5.98065 51.0245 5.82147 51.2902 5.77776 51.5853C5.73405 51.8805 5.80938 52.1809 5.98718 52.4206C6.16499 52.6602 6.43069 52.8194 6.72585 52.8631L10.5227 53.4256C10.671 53.4475 10.8222 53.4396 10.9673 53.4023C11.1125 53.365 11.2488 53.2991 11.3681 53.2085C11.4875 53.1178 11.5875 53.0042 11.6623 52.8743C11.7371 52.7444 11.7852 52.6009 11.8038 52.4522L12.2257 49.0772C12.244 48.9306 12.2333 48.7818 12.1941 48.6393C12.155 48.4969 12.0881 48.3635 11.9974 48.2469C11.9067 48.1303 11.7939 48.0326 11.6655 47.9596C11.5371 47.8866 11.3955 47.8396 11.2489 47.8212ZM63.9189 13.5C64.2173 13.5 64.5034 13.3815 64.7144 13.1705C64.9254 12.9595 65.0439 12.6734 65.0439 12.375C65.0439 12.0766 64.9254 11.7905 64.7144 11.5795C64.5034 11.3685 64.2173 11.25 63.9189 11.25H60.5439C60.2455 11.25 59.9594 11.3685 59.7484 11.5795C59.5374 11.7905 59.4189 12.0766 59.4189 12.375V15.75C59.4189 16.0484 59.5374 16.3345 59.7484 16.5455C59.9594 16.7565 60.2455 16.875 60.5439 16.875C60.8423 16.875 61.1284 16.7565 61.3394 16.5455C61.5504 16.3345 61.6689 16.0484 61.6689 15.75V15.379C65.7676 20.9939 67.7326 27.885 67.2116 34.8171C66.6906 41.7492 63.7177 48.2692 58.8257 53.2083C58.6158 53.4203 58.4986 53.707 58.5 54.0054C58.5014 54.3038 58.6213 54.5893 58.8333 54.7993C59.0453 55.0093 59.332 55.1265 59.6304 55.125C59.9288 55.1236 60.2144 55.0037 60.4244 54.7917C65.7761 49.3884 68.9922 42.2313 69.4791 34.6418C69.966 27.0523 67.6907 19.5429 63.0733 13.5H63.9189Z" fill="black"/>
</svg>
