<svg width="72" height="72" viewBox="0 0 72 72" fill="none" xmlns="http://www.w3.org/2000/svg">
<path d="M27 4.5H41.625V14.625C41.625 15.2437 42.1313 15.75 42.75 15.75H52.875V31.5338C52.875 32.1525 53.3812 32.6588 54 32.6588C54.6188 32.6588 55.125 32.1525 55.125 31.5338V14.625C55.125 14.625 55.1138 14.58 55.1138 14.5575C55.1138 14.4562 55.0912 14.355 55.0575 14.265L55.0238 14.1637C54.9675 14.0513 54.9 13.9388 54.81 13.8375L43.56 2.5875C43.4649 2.49727 43.3544 2.42487 43.2337 2.37375L43.1325 2.34C43.0349 2.30505 42.9324 2.28605 42.8288 2.28375C42.8062 2.28375 42.7837 2.2725 42.7612 2.2725H27.0113C26.3925 2.2725 25.8863 2.77875 25.8863 3.3975C25.8863 4.01625 26.3925 4.5225 27.0113 4.5225L27 4.5ZM43.875 6.08625L51.2887 13.5H43.875V6.08625ZM18 32.6588C18.6187 32.6588 19.125 32.1525 19.125 31.5338V4.5H22.5C23.1188 4.5 23.625 3.99375 23.625 3.375C23.625 2.75625 23.1188 2.25 22.5 2.25H18C17.3812 2.25 16.875 2.75625 16.875 3.375V31.5338C16.875 32.1525 17.3812 32.6588 18 32.6588Z" fill="black"/>
<path d="M48.375 18H23.625C23.0063 18 22.5 18.5062 22.5 19.125C22.5 19.7438 23.0063 20.25 23.625 20.25H48.375C48.9938 20.25 49.5 19.7438 49.5 19.125C49.5 18.5062 48.9938 18 48.375 18ZM23.625 14.625H37.125C37.7437 14.625 38.25 14.1187 38.25 13.5C38.25 12.8812 37.7437 12.375 37.125 12.375H23.625C23.0063 12.375 22.5 12.8812 22.5 13.5C22.5 14.1187 23.0063 14.625 23.625 14.625ZM48.375 23.625H23.625C23.0063 23.625 22.5 24.1313 22.5 24.75C22.5 25.3687 23.0063 25.875 23.625 25.875H48.375C48.9938 25.875 49.5 25.3687 49.5 24.75C49.5 24.1313 48.9938 23.625 48.375 23.625ZM53.6963 54.9225C53.4859 54.7122 53.2006 54.594 52.9031 54.594C52.6056 54.594 52.3204 54.7122 52.11 54.9225C51.8997 55.1329 51.7815 55.4181 51.7815 55.7156C51.7815 56.0131 51.8997 56.2984 52.11 56.5088C52.7738 57.1725 52.7738 58.2638 52.11 58.9275C51.795 59.2537 51.3675 59.4225 50.9175 59.4225C50.4675 59.4225 50.04 59.2425 49.725 58.9275L42.2212 51.345C42.1179 51.2395 41.9945 51.1557 41.8583 51.0984C41.7221 51.0412 41.5758 51.0117 41.4281 51.0117C41.2804 51.0117 41.1342 51.0412 40.998 51.0984C40.8618 51.1557 40.7384 51.2395 40.635 51.345C40.5295 51.4484 40.4457 51.5718 40.3884 51.708C40.3312 51.8442 40.3017 51.9904 40.3017 52.1381C40.3017 52.2859 40.3312 52.4321 40.3884 52.5683C40.4457 52.7045 40.5295 52.8279 40.635 52.9312L47.0475 59.4225C47.7113 60.0863 47.7113 61.1775 47.0475 61.8413C46.4062 62.4825 45.3037 62.4825 44.6625 61.8413L37.125 54.225C37.0216 54.1195 36.8982 54.0357 36.762 53.9784C36.6258 53.9212 36.4796 53.8917 36.3319 53.8917C36.1841 53.8917 36.0379 53.9212 35.9017 53.9784C35.7655 54.0357 35.6421 54.1195 35.5387 54.225C35.4332 54.3284 35.3494 54.4518 35.2922 54.588C35.235 54.7242 35.2055 54.8704 35.2055 55.0181C35.2055 55.1658 35.235 55.3121 35.2922 55.4483C35.3494 55.5845 35.4332 55.7079 35.5387 55.8112L41.94 62.28V62.2912C42.6037 62.955 42.6037 64.0462 41.94 64.71C41.625 65.0363 41.1975 65.205 40.7475 65.205C40.2975 65.205 39.87 65.025 39.555 64.71L32.0175 57.105C31.5787 56.6662 30.87 56.6662 30.4312 57.105C29.9925 57.5437 29.9812 58.2525 30.4312 58.6912L36.27 64.5863V64.5975C36.9338 65.2612 36.9338 66.3525 36.27 67.0163C35.6288 67.6575 34.5375 67.6688 33.8738 67.0163L24.4125 57.7575C24.3179 57.6638 24.2075 57.5876 24.0863 57.5325L13.9612 53.0325C13.3987 52.7738 12.7238 53.0325 12.4763 53.6063C12.4163 53.7414 12.3836 53.8871 12.38 54.0349C12.3764 54.1827 12.402 54.3298 12.4553 54.4677C12.5086 54.6056 12.5885 54.7317 12.6906 54.8387C12.7926 54.9457 12.9148 55.0315 13.05 55.0913L22.995 59.5125L32.2987 68.625C33.0412 69.3787 34.0312 69.7837 35.0888 69.7837C36.1462 69.7837 37.1362 69.3675 37.8787 68.625C38.3512 68.1525 38.6662 67.5675 38.8462 66.96C39.4312 67.2863 40.0725 67.4775 40.7587 67.4775C41.6562 67.4809 42.5275 67.1752 43.2262 66.6118C43.9248 66.0483 44.4082 65.2616 44.595 64.3838C45 64.5187 45.4275 64.6087 45.8662 64.6087C46.9238 64.6087 47.9137 64.1925 48.6562 63.45C49.2075 62.8988 49.5562 62.2238 49.7137 61.515C50.1075 61.6388 50.5125 61.7062 50.94 61.7062C51.9975 61.7062 52.9875 61.29 53.73 60.5475C54.4653 59.8028 54.8775 58.7984 54.8775 57.7519C54.8775 56.7054 54.4653 55.701 53.73 54.9562L53.6963 54.9225ZM22.5 37.1587H13.5C12.8812 37.1587 12.375 36.6525 12.375 36.0337C12.375 35.415 12.8812 34.9088 13.5 34.9088H22.5C23.1187 34.9088 23.625 35.415 23.625 36.0337C23.625 36.6525 23.1187 37.1587 22.5 37.1587ZM49.5 53.325C49.2075 53.325 48.915 53.2125 48.69 52.9875L37.6313 41.5575L35.1788 40.7362L32.2987 43.6388C30.8812 45.0675 29.0025 45.8438 27 45.8438C24.9975 45.8438 23.1188 45.0563 21.7013 43.6388C21.285 43.2113 21.2625 42.5362 21.6675 42.0863L30.375 32.445C31.2785 31.4433 32.3822 30.6423 33.6147 30.0939C34.8472 29.5455 36.181 29.2618 37.53 29.2612C38.925 29.2612 40.2637 29.5538 41.535 30.1388L52.0088 34.9312H58.5112C59.13 34.9312 59.6362 35.4375 59.6362 36.0562C59.6362 36.675 59.13 37.1812 58.5112 37.1812H51.7612C51.6037 37.1812 51.435 37.1475 51.2887 37.08L40.6012 32.1863C37.7437 30.8813 34.1775 31.6125 32.0513 33.9638L24.1313 42.7388C24.975 43.3013 25.9763 43.605 27.0113 43.605C28.4062 43.605 29.7225 43.0537 30.7125 42.0637L34.0875 38.6662C34.3912 38.3625 34.8412 38.2613 35.2463 38.3963L38.6213 39.5325C38.79 39.5887 38.9475 39.69 39.0712 39.8137L50.3213 51.4463C50.7487 51.8962 50.7375 52.605 50.2987 53.0325C50.085 53.2463 49.8037 53.3475 49.5112 53.3475L49.5 53.325Z" fill="black"/>
<path d="M67.5 58.5337H59.625C58.3875 58.5337 57.375 57.5212 57.375 56.2837V33.7837C57.375 32.5462 58.3875 31.5337 59.625 31.5337H67.5C68.7375 31.5337 69.75 32.5462 69.75 33.7837V48.3749C69.75 48.9937 69.2438 49.4999 68.625 49.4999C68.0062 49.4999 67.5 48.9937 67.5 48.3749V33.7837H59.625V56.2837H67.5V52.8749C67.5 52.2562 68.0062 51.7499 68.625 51.7499C69.2438 51.7499 69.75 52.2562 69.75 52.8749V56.2837C69.75 57.5212 68.7375 58.5337 67.5 58.5337ZM12.375 58.5337H4.5C3.2625 58.5337 2.25 57.5212 2.25 56.2837V48.3749C2.25 47.7562 2.75625 47.2499 3.375 47.2499C3.99375 47.2499 4.5 47.7562 4.5 48.3749V56.2837H12.375V33.7837H4.5V43.8749C4.5 44.4937 3.99375 44.9999 3.375 44.9999C2.75625 44.9999 2.25 44.4937 2.25 43.8749V33.7837C2.25 32.5462 3.2625 31.5337 4.5 31.5337H12.375C13.6125 31.5337 14.625 32.5462 14.625 33.7837V56.2837C14.625 57.5212 13.6125 58.5337 12.375 58.5337Z" fill="black"/>
</svg>
