<svg width="88" height="88" viewBox="0 0 88 88" fill="none" xmlns="http://www.w3.org/2000/svg">
<path d="M48.2348 62.1487H27.1839C26.9346 62.1487 26.7469 62.0475 26.6097 61.8394C26.4725 61.6314 26.4536 61.4189 26.5518 61.1897C27.7724 58.3451 28.4492 54.2363 27.2103 51.4701C26.4753 49.8293 24.8657 48.7397 23.1099 48.6937C21.5713 48.6516 20.2329 49.4434 19.5344 50.807C18.9983 51.8538 18.8683 53.1246 18.781 54.3363C18.3198 60.7426 14.8567 62.1315 8.63094 62.3353C8.24342 61.6036 7.47484 61.1036 6.59089 61.1036H2.30802C1.03532 61.1036 0 62.139 0 63.4117V84.8866C0 86.1591 1.03532 87.1946 2.30802 87.1946H6.59089C7.59422 87.1946 8.44758 86.5499 8.76501 85.6541C11.5424 87.0313 14.8687 87.7478 16.9887 87.7478H30.7412C32.8316 87.7478 34.5322 86.0472 34.5322 83.9568C34.5322 83.047 34.2097 82.2111 33.6734 81.5571C34.6717 80.8542 35.3257 79.6939 35.3257 78.3827C35.3257 77.2995 34.8791 76.3191 34.1609 75.6145C35.0024 74.8807 35.5358 73.802 35.5358 72.6005C35.5358 71.9125 35.361 71.2643 35.0538 70.6983H48.2347C50.592 70.6983 52.5097 68.7805 52.5097 66.4233C52.5097 64.0662 50.592 62.1483 48.2347 62.1483L48.2348 62.1487ZM6.80134 84.8868C6.80062 84.9424 6.77821 84.9955 6.7389 85.0348C6.69959 85.0741 6.64648 85.0965 6.59089 85.0972H2.30802C2.25243 85.0965 2.19932 85.0741 2.16 85.0348C2.12069 84.9955 2.09829 84.9424 2.09756 84.8868V63.4119C2.09824 63.3563 2.12063 63.3031 2.15994 63.2638C2.19926 63.2244 2.2524 63.202 2.30802 63.2013H6.59089C6.64651 63.202 6.69965 63.2244 6.73896 63.2638C6.77828 63.3031 6.80067 63.3563 6.80134 63.4119V84.8868ZM48.2348 68.6011H30.8312C30.553 68.6011 30.2863 68.7116 30.0896 68.9083C29.8929 69.105 29.7824 69.3717 29.7824 69.6499C29.7824 69.9281 29.8929 70.1948 30.0896 70.3915C30.2863 70.5882 30.553 70.6987 30.8312 70.6987H31.5363C32.5851 70.6987 33.4383 71.552 33.4383 72.6008C33.4383 73.6496 32.5851 74.5028 31.5363 74.5028H30.7116C30.4335 74.5028 30.1667 74.6133 29.97 74.81C29.7733 75.0066 29.6628 75.2734 29.6628 75.5516C29.6628 75.8297 29.7733 76.0965 29.97 76.2932C30.1667 76.4898 30.4335 76.6003 30.7116 76.6003H31.4456C32.4287 76.6003 33.2284 77.4 33.2284 78.3831C33.2284 79.3662 32.4287 80.166 31.4456 80.166H30.7413C30.4632 80.166 30.1964 80.2765 29.9997 80.4732C29.8031 80.6699 29.6926 80.9366 29.6926 81.2148C29.6926 81.493 29.8031 81.7597 29.9997 81.9564C30.1964 82.1531 30.4632 82.2636 30.7413 82.2636C31.6751 82.2636 32.4348 83.0234 32.4348 83.957C32.4348 84.8908 31.6751 85.6505 30.7413 85.6505H16.9887C14.9609 85.6505 11.4789 84.8417 8.89891 83.3438V64.4247C15.6976 64.1641 20.3114 62.2915 20.8732 54.4868C20.9449 53.4905 21.0447 52.4593 21.4013 51.7631C21.848 50.8907 22.6309 50.778 23.055 50.7905C23.8369 50.8108 24.8329 51.2941 25.2959 52.3277C26.2265 54.4055 25.6624 57.9427 24.6242 60.3628C24.2482 61.2388 24.3335 62.1978 24.8582 62.994C25.3828 63.7898 26.2305 64.2462 27.1837 64.2462H48.2347C49.4353 64.2462 50.4121 65.223 50.4121 66.4237C50.4121 67.6244 49.4353 68.6011 48.2347 68.6011H48.2348ZM85.44 0.553407H81.1571C80.1538 0.553407 79.3004 1.19806 78.983 2.09389C76.2057 0.716492 72.8793 0 70.7593 0H57.0068C54.9164 0 53.2158 1.7006 53.2158 3.79099C53.214 4.66647 53.518 5.51509 54.0753 6.19026C53.0767 6.89311 52.4223 8.05359 52.4223 9.36491C52.4223 10.4481 52.8689 11.4286 53.5871 12.1332C52.7456 12.867 52.2122 13.9456 52.2122 15.1474C52.2122 15.8354 52.387 16.4833 52.6941 17.0493H39.5132C37.1559 17.0493 35.2382 18.9672 35.2382 21.3245C35.2382 23.6818 37.1559 25.5993 39.5132 25.5993H60.5641C60.8134 25.5993 61.0011 25.7006 61.1385 25.9089C61.2756 26.1167 61.2944 26.3293 61.1962 26.5585C59.9756 29.4033 59.2986 33.5119 60.5376 36.2779C61.2726 37.9187 62.8821 39.0085 64.6381 39.0543C64.6755 39.0554 64.7128 39.0559 64.7502 39.0559C66.2431 39.0559 67.5321 38.2716 68.2134 36.9412C68.7495 35.8944 68.8796 34.6234 68.9668 33.4117C69.4281 27.0056 72.8912 25.6167 79.1169 25.4127C79.5044 26.1444 80.273 26.6445 81.1569 26.6445H85.4398C86.7125 26.6445 87.7478 25.609 87.7478 24.3364V2.86125C87.7478 1.58873 86.7127 0.553407 85.44 0.553407ZM66.8748 33.261C66.8032 34.2576 66.7033 35.2887 66.3468 35.9849C65.9 36.857 65.1204 36.966 64.6932 36.9575C63.9113 36.937 62.9151 36.4537 62.4521 35.4201C61.5215 33.3425 62.0857 29.8055 63.124 27.3851C63.4998 26.5088 63.4145 25.5499 62.89 24.7542C62.3654 23.9582 61.5177 23.5016 60.5643 23.5016H39.5133C38.3127 23.5016 37.3359 22.5248 37.3359 21.3243C37.3359 20.1238 38.3127 19.1467 39.5133 19.1467H56.917C57.1952 19.1467 57.4619 19.0362 57.6586 18.8395C57.8553 18.6429 57.9658 18.3761 57.9658 18.0979C57.9658 17.8198 57.8553 17.553 57.6586 17.3563C57.4619 17.1597 57.1952 17.0492 56.917 17.0492H56.2117C55.1629 17.0492 54.3097 16.196 54.3097 15.1472C54.3097 14.0984 55.1629 13.2451 56.2117 13.2451H57.0366C57.3147 13.2451 57.5815 13.1346 57.7782 12.9379C57.9748 12.7412 58.0853 12.4744 58.0853 12.1963C58.0853 11.9181 57.9748 11.6514 57.7782 11.4547C57.5815 11.258 57.3147 11.1475 57.0366 11.1475H56.3026C55.3195 11.1475 54.5198 10.3478 54.5198 9.36474C54.5198 8.38168 55.3195 7.58181 56.3026 7.58181H57.007C57.2852 7.58181 57.5519 7.47132 57.7486 7.27463C57.9453 7.07795 58.0558 6.81119 58.0558 6.53303C58.0558 6.25488 57.9453 5.98812 57.7486 5.79143C57.5519 5.59475 57.2852 5.48425 57.007 5.48425C56.5578 5.48425 56.1334 5.30736 55.8121 4.9859C55.4908 4.66463 55.3138 4.24005 55.3138 3.79082C55.3138 2.85705 56.0734 2.09739 57.0072 2.09739H70.7597C72.7873 2.09739 76.2691 2.90617 78.8495 4.40418V23.3231C72.0507 23.5839 67.437 25.4567 66.8752 33.2609L66.8748 33.261ZM85.6506 24.3363C85.6499 24.3919 85.6275 24.445 85.5882 24.4843C85.5489 24.5236 85.4958 24.546 85.4402 24.5467H81.1573C81.1017 24.546 81.0486 24.5236 81.0093 24.4843C80.97 24.445 80.9476 24.3919 80.9468 24.3363V2.86125C80.9476 2.80569 80.97 2.75262 81.0093 2.71335C81.0487 2.67407 81.1017 2.65169 81.1573 2.65097H85.4402C85.4957 2.65169 85.5488 2.67407 85.5881 2.71335C85.6274 2.75262 85.6499 2.80569 85.6506 2.86125V24.3363ZM60.4584 42.825H59.035C58.5181 35.2791 52.4688 29.2299 44.9228 28.713V27.2898C44.9228 27.0117 44.8123 26.7449 44.6156 26.5482C44.4189 26.3515 44.1522 26.241 43.874 26.241C43.5959 26.241 43.3291 26.3515 43.1324 26.5482C42.9357 26.7449 42.8252 27.0117 42.8252 27.2898V28.713C35.2792 29.2299 29.2299 35.2792 28.713 42.825H27.2896C27.0115 42.825 26.7447 42.9355 26.548 43.1322C26.3513 43.3289 26.2408 43.5957 26.2408 43.8738C26.2408 44.152 26.3513 44.4187 26.548 44.6154C26.7447 44.8121 27.0115 44.9226 27.2896 44.9226H28.713C29.2299 52.4688 35.2792 58.518 42.8252 59.0348V60.458C42.8252 60.7362 42.9357 61.0029 43.1324 61.1996C43.3291 61.3963 43.5959 61.5068 43.874 61.5068C44.1522 61.5068 44.4189 61.3963 44.6156 61.1996C44.8123 61.0029 44.9228 60.7362 44.9228 60.458V59.0348C52.4688 58.518 58.5181 52.4686 59.035 44.9226H60.4584C60.7365 44.9226 61.0033 44.8121 61.2 44.6154C61.3967 44.4187 61.5072 44.152 61.5072 43.8738C61.5072 43.5957 61.3967 43.3289 61.2 43.1322C61.0033 42.9355 60.7365 42.825 60.4584 42.825ZM56.9287 42.825H53.2248C52.7397 38.4726 49.2754 35.0083 44.923 34.5234V30.8195C51.3111 31.3283 56.4197 36.4371 56.9287 42.8252V42.825ZM44.8515 51.1195C44.6996 50.7274 44.3197 50.449 43.8742 50.449C43.4286 50.449 43.0488 50.7274 42.8969 51.1195C39.6451 50.683 37.065 48.1029 36.6285 44.8511C37.0206 44.6992 37.299 44.3194 37.299 43.8738C37.299 43.4283 37.0206 43.0484 36.6285 42.8965C37.065 39.645 39.6451 37.0648 42.8969 36.6283C43.0488 37.0202 43.4286 37.2987 43.8742 37.2987C44.3197 37.2987 44.6996 37.0202 44.8515 36.6283C48.1032 37.0648 50.6834 39.645 51.1199 42.8965C50.7278 43.0484 50.4493 43.4283 50.4493 43.8738C50.4493 44.3194 50.7278 44.6992 51.1199 44.8511C50.6834 48.1029 48.1032 50.683 44.8515 51.1195ZM42.8254 30.8193V34.5233C38.473 35.0083 35.0087 38.4726 34.5236 42.8249H30.8197C31.3287 36.4367 36.4373 31.3281 42.8254 30.8191V30.8193ZM30.8197 44.9226H34.5236C35.0087 49.2751 38.473 52.7394 42.8254 53.2244V56.9284C36.4373 56.4193 31.3287 51.3106 30.8197 44.9224V44.9226ZM44.923 56.9285V53.2246C49.2754 52.7395 52.7397 49.2752 53.2248 44.9228H56.9287C56.4197 51.3109 51.3111 56.4197 44.923 56.9287V56.9285ZM59.1607 74.6033C59.215 74.7299 59.2439 74.8659 59.2456 75.0036C59.2473 75.1413 59.2219 75.2781 59.1708 75.406C59.1197 75.5339 59.0439 75.6505 58.9478 75.7491C58.8516 75.8477 58.737 75.9264 58.6104 75.9807L56.9839 76.6785C56.8535 76.7347 56.7129 76.7637 56.5709 76.7638C56.3294 76.7637 56.0953 76.6803 55.9082 76.5277C55.721 76.3751 55.5922 76.1626 55.5436 75.926C55.4949 75.6895 55.5293 75.4434 55.6411 75.2293C55.7528 75.0152 55.9349 74.8462 56.1568 74.7508L57.7833 74.053C58.0389 73.9434 58.3275 73.9397 58.5858 74.0429C58.8441 74.146 59.0508 74.3476 59.1605 74.6031L59.1607 74.6033ZM50.6865 77.513C50.7062 77.6493 50.6989 77.7881 50.6649 77.9216C50.6309 78.0551 50.571 78.1805 50.4885 78.2909C50.406 78.4012 50.3026 78.4942 50.1842 78.5645C50.0658 78.6349 49.9347 78.6812 49.7984 78.7009L48.0468 78.9538C47.7714 78.9936 47.4916 78.9223 47.2688 78.7557C47.046 78.5892 46.8985 78.3409 46.8587 78.0656C46.819 77.7903 46.8902 77.5104 47.0568 77.2876C47.2234 77.0648 47.4717 76.9173 47.747 76.8776L49.4986 76.6246C49.6349 76.605 49.7738 76.6123 49.9073 76.6463C50.0407 76.6803 50.1662 76.7402 50.2765 76.8227C50.3868 76.9052 50.4798 77.0085 50.5502 77.127C50.6205 77.2454 50.6669 77.3765 50.6865 77.5128V77.513ZM41.748 78.1296C41.715 78.4058 41.5737 78.6576 41.3552 78.8297C41.1367 79.0018 40.8588 79.08 40.5826 79.0473L38.8252 78.8384C38.5495 78.8049 38.2985 78.6634 38.127 78.4451C37.9555 78.2267 37.8776 77.9492 37.9104 77.6735C37.9432 77.3978 38.084 77.1463 38.3019 76.9742C38.5198 76.8022 38.7971 76.7235 39.0729 76.7556L40.8303 76.9644C41.1065 76.9973 41.3583 77.1385 41.5304 77.357C41.7025 77.5755 41.7808 77.8534 41.748 78.1296ZM76.9973 56.1568L76.3408 57.8001C76.2629 57.9948 76.1285 58.1618 75.9548 58.2794C75.7811 58.397 75.5762 58.4599 75.3664 58.4599C75.2332 58.4598 75.1013 58.4343 74.9777 58.3846C74.8498 58.3335 74.7332 58.2577 74.6346 58.1616C74.536 58.0654 74.4573 57.9508 74.403 57.8242C74.3486 57.6976 74.3198 57.5616 74.3181 57.4239C74.3163 57.2861 74.3417 57.1494 74.3928 57.0215L75.0494 55.3783C75.1526 55.1199 75.3542 54.9132 75.6098 54.8036C75.8655 54.6939 76.1542 54.6903 76.4125 54.7935C76.6708 54.8967 76.8776 55.0983 76.9872 55.3539C77.0969 55.6096 77.1005 55.8983 76.9973 56.1566V56.1568ZM79.0477 47.1654L78.8388 48.9228C78.8058 49.199 78.6646 49.4508 78.446 49.6229C78.2275 49.795 77.9496 49.8732 77.6734 49.8405C77.3972 49.8077 77.1454 49.6665 76.9733 49.448C76.8012 49.2295 76.7229 48.9515 76.7557 48.6753L76.9646 46.9179C76.9974 46.6417 77.1386 46.3898 77.3572 46.2177C77.5757 46.0456 77.8537 45.9673 78.1299 46.0001C78.4061 46.033 78.658 46.1742 78.8301 46.3927C79.0022 46.6112 79.0805 46.8892 79.0477 47.1654ZM76.625 38.2496C76.5852 37.9743 76.6564 37.6944 76.8229 37.4716C76.9894 37.2488 77.2377 37.1013 77.513 37.0615C77.7883 37.0217 78.0681 37.0929 78.2909 37.2594C78.5137 37.4259 78.6613 37.6741 78.701 37.9494L78.9542 39.7011C78.9939 39.9764 78.9227 40.2562 78.7562 40.479C78.5896 40.7018 78.3414 40.8493 78.0661 40.8891C77.7908 40.9289 77.511 40.8576 77.2882 40.6911C77.0654 40.5246 76.9179 40.2763 76.8781 40.001L76.625 38.2496ZM74.751 31.591L74.0534 29.9645C73.9445 29.7091 73.9414 29.4208 74.0448 29.1631C74.1481 28.9053 74.3495 28.6991 74.6047 28.5896C74.8599 28.4801 75.1482 28.4763 75.4062 28.579C75.6642 28.6818 75.8709 28.8826 75.981 29.1376L76.6786 30.7641C76.7855 31.0192 76.7873 31.3062 76.6835 31.5627C76.5798 31.8191 76.379 32.0241 76.1247 32.1332C75.8705 32.2422 75.5835 32.2464 75.3262 32.1448C75.0689 32.0433 74.8622 31.8443 74.751 31.591ZM72.6896 64.3113L71.63 65.7285C71.5323 65.8593 71.4054 65.9655 71.2594 66.0386C71.1134 66.1116 70.9523 66.1495 70.789 66.1492C70.5945 66.1491 70.4038 66.0948 70.2384 65.9925C70.0729 65.8902 69.9391 65.7439 69.8521 65.5699C69.765 65.3959 69.728 65.2011 69.7453 65.0074C69.7625 64.8136 69.8334 64.6284 69.9499 64.4726L71.0095 63.0553C71.1766 62.8343 71.4245 62.6884 71.6989 62.6495C71.9733 62.6107 72.252 62.682 72.4739 62.848C72.6959 63.0139 72.8432 63.261 72.8835 63.5351C72.9239 63.8093 72.8543 64.0884 72.6896 64.3113ZM66.5934 69.5999C66.6786 69.7081 66.7417 69.832 66.779 69.9646C66.8163 70.0972 66.8271 70.2358 66.8109 70.3726C66.7946 70.5094 66.7516 70.6416 66.6842 70.7617C66.6168 70.8819 66.5265 70.9875 66.4183 71.0727L65.0277 72.1677C64.8432 72.3134 64.6148 72.3926 64.3796 72.3925C64.1615 72.3926 63.9488 72.3248 63.7711 72.1984C63.5934 72.072 63.4595 71.8934 63.388 71.6873C63.3165 71.4813 63.3111 71.2581 63.3724 71.0489C63.4337 70.8396 63.5587 70.6546 63.7301 70.5197L65.1206 69.4248C65.2288 69.3395 65.3527 69.2765 65.4853 69.2391C65.6179 69.2018 65.7565 69.191 65.8933 69.2072C66.03 69.2235 66.1623 69.2665 66.2824 69.3339C66.4025 69.4013 66.5082 69.4917 66.5934 69.5999ZM21.1548 18.1479C21.0696 18.0397 21.0065 17.9158 20.9692 17.7832C20.9319 17.6506 20.9211 17.512 20.9373 17.3752C20.9536 17.2385 20.9966 17.1062 21.064 16.9861C21.1314 16.866 21.2217 16.7603 21.3299 16.6751L22.7204 15.5802C22.8286 15.495 22.9526 15.4319 23.0852 15.3946C23.2177 15.3573 23.3564 15.3464 23.4931 15.3627C23.6299 15.379 23.7621 15.422 23.8823 15.4894C24.0024 15.5567 24.1081 15.6471 24.1933 15.7553C24.2785 15.8635 24.3415 15.9875 24.3789 16.12C24.4162 16.2526 24.427 16.3912 24.4107 16.528C24.3945 16.6648 24.3514 16.797 24.2841 16.9171C24.2167 17.0373 24.1263 17.1429 24.0181 17.2281L22.6276 18.3231C22.443 18.4688 22.2147 18.548 21.9795 18.5479C21.8207 18.5481 21.6639 18.5123 21.521 18.443C21.3781 18.3737 21.2529 18.2728 21.1548 18.1479ZM15.0586 23.4368L16.1182 22.0195C16.2847 21.7968 16.5329 21.6493 16.8082 21.6095C17.0835 21.5698 17.3633 21.641 17.586 21.8076C17.8088 21.9741 17.9563 22.2223 17.996 22.4976C18.0358 22.7729 17.9645 23.0527 17.798 23.2754L16.7384 24.6927C16.6407 24.8235 16.5138 24.9297 16.3679 25.0027C16.2219 25.0758 16.0608 25.1137 15.8976 25.1134C15.703 25.1133 15.5123 25.059 15.3469 24.9567C15.1814 24.8544 15.0476 24.7081 14.9605 24.5341C14.8735 24.3601 14.8365 24.1653 14.8538 23.9715C14.8712 23.7777 14.942 23.5926 15.0586 23.4368ZM28.5871 13.1444C28.4775 12.8887 28.4739 12.6 28.5771 12.3418C28.6804 12.0835 28.882 11.8768 29.1376 11.7671L30.7641 11.0695C30.891 11.0128 31.028 10.9819 31.167 10.9786C31.306 10.9753 31.4443 10.9997 31.5738 11.0503C31.7033 11.1009 31.8214 11.1768 31.9214 11.2735C32.0213 11.3702 32.1009 11.4858 32.1558 11.6136C32.2106 11.7414 32.2394 11.8788 32.2407 12.0179C32.2419 12.1569 32.2154 12.2948 32.1629 12.4236C32.1103 12.5523 32.0326 12.6693 31.9345 12.7677C31.8363 12.8662 31.7195 12.9441 31.5909 12.997L29.9644 13.6946C29.834 13.7508 29.6935 13.7799 29.5515 13.7799C29.3462 13.78 29.1453 13.7198 28.9739 13.6068C28.8025 13.4938 28.668 13.3331 28.5871 13.1444ZM37.0615 10.2349C37.0418 10.0986 37.0491 9.9597 37.0831 9.82623C37.1171 9.69276 37.177 9.56728 37.2595 9.45697C37.342 9.34667 37.4454 9.25368 37.5638 9.18333C37.6822 9.11298 37.8133 9.06664 37.9496 9.04696L39.7013 8.79403C39.9766 8.75428 40.2564 8.82551 40.4792 8.99207C40.7019 9.15863 40.8494 9.40687 40.8892 9.68217C40.9289 9.95747 40.8577 10.2373 40.6911 10.4601C40.5246 10.6828 40.2763 10.8303 40.001 10.8701L38.2496 11.123C38.1132 11.1427 37.9744 11.1353 37.8409 11.1014C37.7074 11.0674 37.5819 11.0074 37.4716 10.9249C37.3613 10.8424 37.2683 10.739 37.198 10.6206C37.1276 10.5022 37.0813 10.371 37.0616 10.2347L37.0615 10.2349ZM46.0001 9.6182C46.0686 9.04294 46.5905 8.63357 47.1654 8.70051L48.9227 8.9094C49.1983 8.94293 49.4494 9.08439 49.6209 9.30277C49.7923 9.52115 49.8702 9.79862 49.8374 10.0743C49.8047 10.3501 49.6639 10.6015 49.446 10.7736C49.228 10.9457 48.9508 11.0243 48.675 10.9923L46.9177 10.7834C46.6415 10.7506 46.3897 10.6094 46.2176 10.3908C46.0455 10.1723 45.9672 9.8944 46.0001 9.6182ZM8.70051 40.5828L8.9094 38.8253C8.94222 38.5491 9.08343 38.2972 9.30196 38.1251C9.52049 37.953 9.79845 37.8748 10.0747 37.9076C10.3509 37.9404 10.6028 38.0816 10.7749 38.3001C10.947 38.5187 11.0253 38.7966 10.9924 39.0729L10.7836 40.8303C10.7506 41.1064 10.6093 41.3582 10.3908 41.5303C10.1723 41.7024 9.8944 41.7807 9.6182 41.748C9.34199 41.7151 9.09014 41.5739 8.91804 41.3554C8.74594 41.1369 8.66769 40.859 8.70051 40.5828ZM12.9972 56.1572L13.6948 57.7836C13.8017 58.0388 13.8034 58.3258 13.6997 58.5822C13.596 58.8386 13.3951 59.0437 13.1409 59.1527C12.8867 59.2618 12.5997 59.266 12.3424 59.1644C12.0851 59.0628 11.8783 58.8637 11.7671 58.6104L11.0695 56.9839C10.9599 56.7283 10.9563 56.4396 11.0595 56.1813C11.1628 55.9231 11.3644 55.7164 11.62 55.6067C11.7465 55.5524 11.8825 55.5235 12.0203 55.5217C12.158 55.52 12.2947 55.5453 12.4226 55.5964C12.5505 55.6475 12.6671 55.7234 12.7657 55.8195C12.8643 55.9157 12.9429 56.0304 12.9972 56.157V56.1572ZM10.7509 31.5912L11.4076 29.9479C11.4582 29.8193 11.5337 29.702 11.6298 29.6026C11.7259 29.5033 11.8406 29.4239 11.9675 29.3691C12.0944 29.3142 12.2308 29.285 12.369 29.2831C12.5072 29.2812 12.6445 29.3066 12.7728 29.3579C12.9011 29.4092 13.0181 29.4853 13.1169 29.582C13.2157 29.6786 13.2945 29.7938 13.3486 29.921C13.4027 30.0481 13.4312 30.1848 13.4324 30.323C13.4335 30.4612 13.4073 30.5983 13.3554 30.7263L12.6986 32.3696C12.6208 32.5644 12.4864 32.7313 12.3127 32.8489C12.139 32.9666 11.9341 33.0294 11.7243 33.0294C11.5911 33.0293 11.4591 33.0037 11.3354 32.9541C11.0771 32.8509 10.8704 32.6493 10.7608 32.3937C10.6511 32.138 10.6475 31.8493 10.7507 31.591L10.7509 31.5912ZM11.1232 49.4986C11.1629 49.7739 11.0917 50.0537 10.9251 50.2765C10.7585 50.4993 10.5103 50.6467 10.235 50.6865C9.95966 50.7262 9.67985 50.6549 9.45709 50.4883C9.23433 50.3218 9.08686 50.0735 9.04713 49.7982L8.7942 48.0466C8.75445 47.7713 8.82569 47.4915 8.99225 47.2687C9.15881 47.0459 9.40704 46.8984 9.68235 46.8587C9.95765 46.8189 10.2375 46.8901 10.4602 47.0567C10.683 47.2233 10.8305 47.4715 10.8703 47.7468L11.1232 49.4984V49.4986ZM43.874 40.4655C41.9946 40.4655 40.4655 41.9946 40.4655 43.874C40.4655 45.7534 41.9946 47.2825 43.874 47.2825C45.7534 47.2825 47.2825 45.7534 47.2825 43.874C47.2825 41.9946 45.7534 40.4655 43.874 40.4655ZM43.874 45.185C43.151 45.185 42.563 44.597 42.563 43.874C42.563 43.151 43.151 42.563 43.874 42.563C44.597 42.563 45.185 43.151 45.185 43.874C45.185 44.597 44.597 45.185 43.874 45.185Z" fill="#0B8FCF"/>
</svg>
