<svg width="72" height="72" viewBox="0 0 72 72" fill="none" xmlns="http://www.w3.org/2000/svg">
<path fill-rule="evenodd" clip-rule="evenodd" d="M10.3313 53.4513H2.74169C2.5832 53.4513 2.42648 53.418 2.28173 53.3534C2.13697 53.2889 2.00742 53.1946 1.90151 53.0767C1.79559 52.9588 1.71568 52.8199 1.66696 52.6691C1.61825 52.5183 1.60183 52.3589 1.61877 52.2013C2.66306 42.4771 9.67614 34.5389 18.9202 32.1293C15.0808 30.0289 12.4678 25.948 12.4678 21.2776C12.4678 14.4728 18.0149 8.91958 24.8199 8.91958C31.6311 8.91958 37.1777 14.4729 37.1777 21.2776C37.1777 25.9481 34.5646 30.0293 30.723 32.1296C39.1669 34.3302 45.7469 41.1407 47.6175 49.7111H49.6661L51.8465 43.0006C51.965 42.6361 52.1957 42.3185 52.5057 42.0933C52.8157 41.868 53.1891 41.7467 53.5723 41.7467C53.9555 41.7467 54.3288 41.868 54.6389 42.0933C54.9489 42.3185 55.1796 42.6361 55.298 43.0006L57.4784 49.7111H64.5342C64.9174 49.7111 65.2907 49.8324 65.6007 50.0577C65.9108 50.2829 66.1415 50.6005 66.2599 50.9649C66.3783 51.3293 66.3783 51.7219 66.2599 52.0863C66.1415 52.4508 65.9108 52.7684 65.6008 52.9936L59.8925 57.1411L62.0729 63.8516C62.1914 64.2161 62.1914 64.6087 62.0729 64.9731C61.9545 65.3375 61.7238 65.6551 61.4138 65.8804C61.1037 66.1056 60.7304 66.2269 60.3472 66.2269C59.964 66.2269 59.5906 66.1056 59.2806 65.8803L53.5723 61.733L47.864 65.8803C47.5539 66.1056 47.1806 66.2269 46.7974 66.2269C46.4142 66.2269 46.0408 66.1056 45.7308 65.8804C45.4208 65.6551 45.19 65.3375 45.0716 64.9731C44.9532 64.6087 44.9532 64.2161 45.0716 63.8516L47.252 57.1411L42.1736 53.4513H39.3082C39.4263 53.5572 39.5207 53.6868 39.5854 53.8317C39.65 53.9765 39.6834 54.1334 39.6833 54.292V58.0082C39.6833 58.2364 39.6142 58.4593 39.485 58.6475C39.3558 58.8356 39.1727 58.9802 38.9597 59.0622L37.2235 59.7304C36.9564 60.6534 36.5872 61.5437 36.1226 62.3848L36.8772 64.0885C36.9696 64.297 36.9966 64.5286 36.9549 64.7528C36.9131 64.977 36.8045 65.1833 36.6432 65.3446L34.0161 67.9716C33.8548 68.1329 33.6485 68.2415 33.4244 68.2833C33.2002 68.3251 32.9686 68.298 32.76 68.2057L31.0583 67.4518C30.217 67.9174 29.3259 68.2865 28.4018 68.5522L27.7337 70.288C27.6518 70.501 27.5072 70.6842 27.319 70.8134C27.1309 70.9426 26.908 71.0118 26.6797 71.0118H22.9637C22.7354 71.0118 22.5125 70.9427 22.3244 70.8135C22.1362 70.6842 21.9916 70.501 21.9096 70.288L21.2416 68.5524C20.3171 68.2857 19.4255 67.9162 18.5832 67.4509L16.8795 68.2057C16.671 68.298 16.4394 68.3251 16.2152 68.2833C15.991 68.2415 15.7847 68.1329 15.6235 67.9716L12.9965 65.3446C12.835 65.1831 12.7263 64.9766 12.6846 64.7521C12.6429 64.5276 12.6702 64.2958 12.763 64.0871C12.763 64.0871 13.5194 62.3858 13.5195 62.3859C13.0542 61.5448 12.6845 60.6542 12.4174 59.7308L10.6799 59.0622C10.4669 58.9802 10.2838 58.8356 10.1546 58.6475C10.0254 58.4593 9.95625 58.2364 9.95623 58.0082V54.292C9.95623 53.9649 10.0971 53.6615 10.3313 53.4513ZM24.8199 33.6355C14.3813 33.6355 5.71487 41.2277 4.03684 51.1925H12.901C13.0834 50.7543 13.29 50.3266 13.5198 49.9113L12.763 48.2094C12.6702 48.0008 12.6429 47.7689 12.6846 47.5445C12.7263 47.32 12.835 47.1134 12.9965 46.952L15.6235 44.3248C15.7849 44.1634 15.9915 44.0546 16.216 44.013C16.4405 43.9713 16.6723 43.9987 16.8809 44.0914L18.5828 44.8481C19.4239 44.383 20.3147 44.0139 21.2384 43.7478L21.9099 42.0074C21.9921 41.7946 22.1367 41.6117 22.3248 41.4827C22.5128 41.3536 22.7356 41.2846 22.9637 41.2846H26.6797C27.1472 41.2846 27.5663 41.5726 27.734 42.0089L28.4022 43.7481C29.3255 44.0141 30.216 44.3831 31.0568 44.8481L32.7586 44.0914C32.9673 43.9987 33.1991 43.9713 33.4236 44.013C33.6481 44.0546 33.8546 44.1634 34.0161 44.3248L36.6432 46.952C36.8045 47.1132 36.9131 47.3195 36.9549 47.5437C36.9966 47.7679 36.9696 47.9995 36.8772 48.208L36.123 49.9105C36.3529 50.326 36.5595 50.754 36.7418 51.1925H40.8265C40.9042 50.7762 41.1251 50.4003 41.4509 50.1298C41.7766 49.8592 42.1868 49.7111 42.6102 49.7111H45.2995C43.0565 40.4848 34.7396 33.6355 24.8199 33.6355ZM43.9776 51.9699L48.8409 55.5033C49.1509 55.7285 49.3817 56.0461 49.5001 56.4106C49.6185 56.775 49.6185 57.1676 49.5 57.532L47.6424 63.2492L52.5057 59.7159C52.8157 59.4906 53.1891 59.3693 53.5723 59.3693C53.9555 59.3693 54.3288 59.4905 54.6389 59.7157L59.5021 63.2492L57.6445 57.532C57.5261 57.1676 57.5261 56.775 57.6445 56.4106C57.7629 56.0461 57.9937 55.7285 58.3037 55.5033L63.1669 51.9699H57.1556C56.7724 51.9699 56.3991 51.8486 56.0891 51.6234C55.7791 51.3982 55.5483 51.0806 55.4299 50.7161L53.5723 44.9991L51.7147 50.7161C51.5963 51.0806 51.3655 51.3982 51.0555 51.6234C50.7455 51.8486 50.3721 51.9699 49.9889 51.9699H43.9776ZM24.8199 31.3767C30.386 31.3767 34.9189 26.8385 34.9189 21.2776C34.9189 15.7167 30.386 11.1784 24.8199 11.1784C19.2591 11.1784 14.7266 15.7168 14.7266 21.2776C14.7266 26.8383 19.2591 31.3767 24.8199 31.3767ZM26.5011 45.0982L25.9038 43.5434H23.7384L23.1379 45.0997C23.0719 45.2707 22.9652 45.4231 22.8271 45.5437C22.689 45.6643 22.5237 45.7495 22.3453 45.7919C21.25 46.0521 20.2033 46.4858 19.2449 47.0766C19.0886 47.173 18.9112 47.2297 18.728 47.242C18.5448 47.2543 18.3614 47.2218 18.1936 47.1472L16.6721 46.4707L15.1422 48.0006L15.8187 49.5221C15.8933 49.6898 15.9259 49.8733 15.9136 50.0565C15.9013 50.2397 15.8446 50.4171 15.7483 50.5734C15.1567 51.534 14.7215 52.5826 14.4592 53.6799C14.4165 53.8579 14.3311 54.0229 14.2104 54.1606C14.0898 54.2983 13.9375 54.4047 13.7666 54.4705L12.2151 55.0675V57.2326L13.7666 57.8298C13.9373 57.8955 14.0896 58.0017 14.2102 58.1392C14.3308 58.2768 14.4161 58.4416 14.4589 58.6195C14.7228 59.7154 15.1553 60.7642 15.7473 61.7216C15.844 61.878 15.9011 62.0556 15.9136 62.2391C15.926 62.4226 15.8935 62.6063 15.8187 62.7743L15.1422 64.2959L16.673 65.8267L18.1952 65.1524C18.3623 65.0784 18.545 65.046 18.7274 65.0581C18.9099 65.0702 19.0866 65.1265 19.2425 65.222C20.2034 65.8107 21.2487 66.2475 22.3483 66.5081C22.527 66.5505 22.6926 66.6357 22.831 66.7566C22.9693 66.8774 23.076 67.0301 23.142 67.2015L23.7392 68.753H25.9042L26.5014 67.2015C26.5673 67.0302 26.6739 66.8776 26.8121 66.7568C26.9502 66.636 27.1157 66.5507 27.2943 66.5083C28.3892 66.2489 29.4355 65.8155 30.3931 65.2244C30.5493 65.1278 30.7267 65.0708 30.9099 65.0583C31.0931 65.0457 31.2767 65.078 31.4446 65.1524L32.9666 65.8267L34.4982 64.2951L33.824 62.7729C33.7499 62.6057 33.7176 62.4231 33.7297 62.2406C33.7418 62.0582 33.798 61.8814 33.8936 61.7255C34.4824 60.7645 34.9193 59.7191 35.1798 58.6227C35.2223 58.4442 35.3076 58.2787 35.4283 58.1405C35.5491 58.0023 35.7017 57.8957 35.873 57.8298L37.4245 57.2326V55.0675L35.873 54.4705C35.7016 54.4044 35.5489 54.2977 35.4281 54.1594C35.3073 54.0211 35.222 53.8554 35.1797 53.6768C34.9201 52.5803 34.4864 51.5326 33.8951 50.5734C33.7989 50.4173 33.7422 50.2402 33.7298 50.0572C33.7174 49.8743 33.7497 49.6911 33.824 49.5235L34.4982 48.0013L32.9674 46.4707L31.446 47.1472C31.2782 47.2218 31.0948 47.2543 30.9116 47.242C30.7284 47.2297 30.5509 47.173 30.3946 47.0766C29.4363 46.4858 28.3896 46.0521 27.2943 45.7919C27.1156 45.7495 26.95 45.6641 26.8118 45.5432C26.6736 45.4223 26.567 45.2696 26.5011 45.0982ZM24.8199 48.5372C29.0251 48.5372 32.4346 51.943 32.4346 56.1482C32.4346 60.3533 29.0248 63.763 24.8199 63.763C20.6146 63.763 17.2088 60.3534 17.2088 56.1482C17.2088 51.9428 20.6144 48.5372 24.8199 48.5372ZM24.8199 50.7961C21.8625 50.7961 19.4676 53.1908 19.4676 56.1482C19.4676 59.1057 21.8624 61.5041 24.8199 61.5041C27.7775 61.5041 30.1758 59.1058 30.1758 56.1482C30.1758 53.1907 27.7774 50.7961 24.8199 50.7961ZM67.4568 11.0224L61.1245 3.56249L54.7922 11.0224H57.0699C57.3695 11.0224 57.6567 11.1414 57.8685 11.3532C58.0804 11.565 58.1993 11.8523 58.1993 12.1518V32.0783C58.1993 32.7016 57.6934 33.2077 57.0699 33.2077C56.4466 33.2077 55.9405 32.7016 55.9405 32.0783V13.2812H53.5408C52.8636 13.2812 52.2946 12.9149 52.0141 12.3032C51.7349 11.6981 51.8247 11.0192 52.2637 10.5106L59.8424 1.58249C60.1669 1.19638 60.6072 0.988281 61.1245 0.988281C61.6278 0.988281 62.068 1.18918 62.3999 1.57459L62.4051 1.58066L69.988 10.5137C70.4193 11.0206 70.5104 11.6989 70.2314 12.3032C69.9499 12.917 69.377 13.2812 68.7082 13.2812H66.305V25.8229C66.305 26.4462 65.7989 26.9523 65.1756 26.9523C64.5521 26.9523 64.0462 26.4462 64.0462 25.8229V12.1518C64.0462 11.8523 64.1652 11.565 64.377 11.3532C64.5888 11.1414 64.876 11.0224 65.1756 11.0224H67.4568ZM64.0462 28.9505C64.0462 28.3272 64.5521 27.8211 65.1756 27.8211C65.7989 27.8211 66.305 28.3272 66.305 28.9505V32.0783C66.305 32.7016 65.7989 33.2077 65.1756 33.2077C64.5521 33.2077 64.0462 32.7016 64.0462 32.0783V28.9505ZM64.0462 35.2059C64.0462 34.5826 64.5521 34.0765 65.1756 34.0765C65.7989 34.0765 66.305 34.5826 66.305 35.2059V38.2566C66.305 38.8799 65.7989 39.386 65.1756 39.386C64.5521 39.386 64.0462 38.8799 64.0462 38.2566V35.2059ZM58.1993 38.2566C58.1993 38.8799 57.6934 39.386 57.0699 39.386C56.4466 39.386 55.9405 38.8799 55.9405 38.2566V35.2059C55.9405 34.5826 56.4466 34.0765 57.0699 34.0765C57.6934 34.0765 58.1993 34.5826 58.1993 35.2059V38.2566ZM51.0956 23.2611L46.0023 17.2608L40.9088 23.2611H42.5203C42.8198 23.2611 43.1071 23.3801 43.3189 23.5919C43.5307 23.8037 43.6497 24.091 43.6497 24.3905V34.6148C43.6497 35.2381 43.1436 35.7442 42.5203 35.7442C41.897 35.7442 41.3909 35.2381 41.3909 34.6148V25.52H39.4895C38.8436 25.52 38.3011 25.1705 38.0336 24.5872C37.7672 24.0101 37.853 23.3625 38.2714 22.8776L44.7792 15.211C45.089 14.8428 45.5087 14.6441 46.0023 14.6441C46.4821 14.6441 46.9018 14.8356 47.2184 15.2031L47.2236 15.2091L53.7353 22.8804C54.1467 23.3639 54.2338 24.0109 53.9679 24.5872C53.6993 25.1727 53.1527 25.52 52.515 25.52H50.6105V41.3273C50.6105 41.9506 50.1044 42.4568 49.4811 42.4568C48.8578 42.4568 48.3517 41.9506 48.3517 41.3273V24.3905C48.3517 24.091 48.4707 23.8037 48.6825 23.5919C48.8943 23.3801 49.1816 23.2611 49.4811 23.2611H51.0956Z" fill="black"/>
</svg>
