<svg width="72" height="72" viewBox="0 0 72 72" fill="none" xmlns="http://www.w3.org/2000/svg">
<path d="M36.1726 32.471H47.3155C47.6138 32.471 47.9 32.3525 48.111 32.1415C48.3219 31.9305 48.4405 31.6444 48.4405 31.346V26.2799C48.4405 25.9815 48.3219 25.6954 48.111 25.4844C47.9 25.2734 47.6138 25.1549 47.3155 25.1549H36.1726C35.8742 25.1549 35.5881 25.2734 35.3771 25.4844C35.1661 25.6954 35.0476 25.9815 35.0476 26.2799V31.3464C35.0477 31.6447 35.1663 31.9308 35.3772 32.1416C35.5882 32.3525 35.8743 32.471 36.1726 32.471ZM37.2976 27.4049H46.1905V30.2214H37.2976V27.4049ZM58.4116 36.1484H36.1726C35.8742 36.1484 35.5881 36.2669 35.3771 36.4779C35.1661 36.6889 35.0476 36.975 35.0476 37.2734C35.0476 37.5718 35.1661 37.8579 35.3771 38.0689C35.5881 38.2799 35.8742 38.3984 36.1726 38.3984H58.4116C58.7099 38.3984 58.9961 38.2799 59.2071 38.0689C59.418 37.8579 59.5366 37.5718 59.5366 37.2734C59.5366 36.975 59.418 36.6889 59.2071 36.4779C58.9961 36.2669 58.7099 36.1484 58.4116 36.1484ZM58.4116 42.1109H36.1726C35.8742 42.1109 35.5881 42.2294 35.3771 42.4404C35.1661 42.6514 35.0476 42.9375 35.0476 43.2359C35.0476 43.5343 35.1661 43.8204 35.3771 44.0314C35.5881 44.2424 35.8742 44.3609 36.1726 44.3609H58.4116C58.7099 44.3609 58.9961 44.2424 59.2071 44.0314C59.418 43.8204 59.5366 43.5343 59.5366 43.2359C59.5366 42.9375 59.418 42.6514 59.2071 42.4404C58.9961 42.2294 58.7099 42.1109 58.4116 42.1109ZM59.5366 49.1984C59.5366 48.9 59.418 48.6139 59.2071 48.4029C58.9961 48.1919 58.7099 48.0734 58.4116 48.0734H36.1726C35.8742 48.0734 35.5881 48.1919 35.3771 48.4029C35.1661 48.6139 35.0476 48.9 35.0476 49.1984C35.0476 49.4968 35.1661 49.7829 35.3771 49.9939C35.5881 50.2049 35.8742 50.3234 36.1726 50.3234H58.4116C58.7099 50.3234 58.9961 50.2049 59.2071 49.9939C59.418 49.7829 59.5366 49.4968 59.5366 49.1984ZM25.8334 16.793V11.7264C25.8334 11.4281 25.7148 11.1419 25.5039 10.9309C25.2929 10.72 25.0067 10.6014 24.7084 10.6014H13.5889C13.2905 10.6014 13.0044 10.72 12.7934 10.9309C12.5824 11.1419 12.4639 11.4281 12.4639 11.7264V16.793C12.4639 17.0914 12.5824 17.3775 12.7934 17.5885C13.0044 17.7995 13.2905 17.918 13.5889 17.918H24.7084C25.0067 17.918 25.2929 17.7995 25.5039 17.5885C25.7148 17.3775 25.8334 17.0914 25.8334 16.793ZM23.5834 15.668H14.7139V12.8514H23.5834V15.668ZM25.4072 21.5949H13.5902C13.2918 21.5949 13.0057 21.7135 12.7947 21.9244C12.5837 22.1354 12.4652 22.4216 12.4652 22.7199C12.4652 23.0183 12.5837 23.3045 12.7947 23.5154C13.0057 23.7264 13.2918 23.8449 13.5902 23.8449H25.4072V21.5949ZM12.4652 28.6824C12.4652 28.8302 12.4943 28.9765 12.5509 29.113C12.6074 29.2495 12.6903 29.3735 12.7947 29.4779C12.8992 29.5824 13.0232 29.6653 13.1597 29.7218C13.2962 29.7783 13.4425 29.8074 13.5902 29.8074H25.4072V27.5574H13.5902C13.2918 27.5574 13.0057 27.676 12.7947 27.8869C12.5837 28.0979 12.4652 28.3841 12.4652 28.6824ZM13.5902 35.7699H25.4072V33.5199H13.5902C13.2918 33.5199 13.0057 33.6385 12.7947 33.8494C12.5837 34.0604 12.4652 34.3466 12.4652 34.6449C12.4652 34.9433 12.5837 35.2295 12.7947 35.4404C13.0057 35.6514 13.2918 35.7699 13.5902 35.7699ZM36.1726 56.8394C35.8742 56.8394 35.5881 56.9579 35.3771 57.1689C35.1661 57.3799 35.0476 57.666 35.0476 57.9644C35.0476 58.2628 35.1661 58.5489 35.3771 58.7599C35.5881 58.9709 35.8742 59.0894 36.1726 59.0894H47.3155C47.6138 59.0894 47.9 58.9709 48.111 58.7599C48.3219 58.5489 48.4405 58.2628 48.4405 57.9644C48.4405 57.666 48.3219 57.3799 48.111 57.1689C47.9 56.9579 47.6138 56.8394 47.3155 56.8394H36.1726Z" fill="black"/>
<path d="M68.0492 18.5035C68.0492 17.6305 67.3427 16.9285 66.4742 16.9285H62.1542V15.4439C62.1542 13.7128 61.4774 12.0878 60.2489 10.8683C59.6527 10.2731 58.9448 9.80139 58.1658 9.48038C57.3869 9.15936 56.5522 8.99533 55.7097 8.99769H55.6593L53.5259 9.01389L54.3201 8.35644C54.6328 8.08723 54.8274 7.70611 54.862 7.29498C54.8967 6.88385 54.7687 6.47552 54.5056 6.15774C54.2425 5.83996 53.8651 5.63809 53.4548 5.59551C53.0444 5.55294 52.6337 5.67305 52.3109 5.93004L48.1083 9.40944C48.0953 9.42024 48.0863 9.43374 48.0737 9.44454C48.021 9.49123 47.9715 9.54145 47.9256 9.59484C47.9072 9.61599 47.8874 9.63624 47.8703 9.65829C47.8133 9.73078 47.7628 9.80818 47.7195 9.88959C47.7101 9.90714 47.7047 9.92604 47.6961 9.94404C47.6696 9.99939 47.643 10.0543 47.6228 10.1137C47.6187 10.1254 47.6174 10.1371 47.6138 10.1488C47.6039 10.1807 47.5971 10.2127 47.589 10.2451C47.5661 10.3366 47.5513 10.43 47.5449 10.5241C47.5409 10.5884 47.5413 10.6519 47.5454 10.7158C47.5472 10.745 47.5472 10.7743 47.5508 10.8035C47.5611 10.894 47.5773 10.9835 47.6034 11.0704C47.6075 11.0843 47.6142 11.0974 47.6187 11.1109C47.6435 11.186 47.6732 11.2589 47.7087 11.33C47.7227 11.3579 47.7393 11.3845 47.7551 11.4115C47.7893 11.4704 47.8271 11.5267 47.8685 11.5807C47.8802 11.5955 47.8874 11.6126 47.9 11.6275C47.9072 11.636 47.9166 11.6419 47.9238 11.6504C47.9891 11.726 48.0593 11.798 48.1398 11.8615L48.1556 11.8741C48.1565 11.875 48.1576 11.8757 48.1587 11.8763L52.3424 15.1658C52.6711 15.4203 53.087 15.5345 53.4996 15.4835C53.9121 15.4326 54.2878 15.2206 54.5447 14.8938C54.8016 14.567 54.9189 14.1519 54.871 13.739C54.8231 13.3261 54.6139 12.9488 54.2891 12.6895L53.6208 12.1639L55.6832 12.1481H55.7093C56.5845 12.1481 57.408 12.4874 58.0304 13.1044C58.3401 13.4101 58.5858 13.7745 58.7531 14.1763C58.9204 14.5781 59.0059 15.0092 59.0046 15.4444V27.2497C59.0046 27.6674 59.1706 28.068 59.4659 28.3634C59.7613 28.6588 60.1619 28.8247 60.5796 28.8247C60.9973 28.8247 61.3979 28.6588 61.6933 28.3634C61.9887 28.068 62.1546 27.6674 62.1546 27.2497V20.0785H64.8996V56.3899H56.3897C55.972 56.3899 55.5714 56.5558 55.276 56.8512C54.9806 57.1466 54.8147 57.5472 54.8147 57.9649V66.4735H29.6822V20.0785H57.8792V16.9285H45.4682V3.95049C45.4682 3.07749 44.7617 2.37549 43.8932 2.37549H5.52617C4.65767 2.37549 3.95117 3.07749 3.95117 3.95049V53.4955C3.95117 54.3685 4.65767 55.0705 5.52617 55.0705H9.84392V57.329C9.84392 59.0602 10.5207 60.6851 11.7492 61.9042C12.3454 62.4995 13.0532 62.9713 13.8322 63.2923C14.6112 63.6133 15.4459 63.7773 16.2884 63.7748H16.3388L18.4718 63.7586L17.678 64.4161C17.3562 64.6825 17.1533 65.0658 17.1141 65.4817C17.0749 65.8976 17.2026 66.3121 17.4689 66.6339C17.7353 66.9557 18.1186 67.1586 18.5346 67.1978C18.9505 67.237 19.365 67.1093 19.6868 66.8429L23.8893 63.364C23.9024 63.3532 23.9118 63.3392 23.9249 63.328C23.9775 63.2816 24.0266 63.2312 24.0729 63.1781C24.0909 63.1574 24.1103 63.1376 24.1274 63.116C24.1848 63.0431 24.2357 62.9653 24.2795 62.8834C24.2871 62.8685 24.2916 62.8528 24.2993 62.8379C24.3272 62.7803 24.3551 62.7223 24.3762 62.6602C24.3803 62.648 24.3821 62.6354 24.3857 62.6233C24.3951 62.5936 24.4014 62.563 24.4091 62.5328C24.4492 62.3771 24.4642 62.2159 24.4536 62.0554C24.4518 62.0275 24.4518 61.9996 24.4487 61.9717C24.4389 61.8808 24.4212 61.7909 24.396 61.703C24.3924 61.6909 24.3866 61.6796 24.3825 61.6675C24.3576 61.5905 24.3268 61.5156 24.2903 61.4434C24.2768 61.4164 24.2606 61.3907 24.2453 61.3642C24.2107 61.3044 24.1722 61.247 24.1301 61.1923C24.1188 61.1774 24.1116 61.1612 24.0995 61.1468C24.0918 61.1374 24.0819 61.1311 24.0743 61.1221C24.0228 61.0629 23.967 61.0077 23.9073 60.9569C23.8925 60.9443 23.8794 60.9295 23.8641 60.9173C23.8629 60.916 23.8615 60.9148 23.8601 60.9137L19.6575 57.6089C19.495 57.481 19.3088 57.3863 19.1096 57.3303C18.9105 57.2743 18.7022 57.2582 18.4968 57.2828C18.2914 57.3073 18.0928 57.3722 17.9125 57.4735C17.7321 57.5749 17.5735 57.7108 17.4458 57.8735C17.3179 58.0361 17.2232 58.2222 17.1673 58.4213C17.1114 58.6205 17.0952 58.8287 17.1198 59.034C17.1444 59.2394 17.2092 59.4379 17.3105 59.6182C17.4119 59.7985 17.5477 59.9571 17.7104 60.0848L18.3791 60.6109L16.3167 60.6262C15.4356 60.6167 14.5977 60.2936 13.9695 59.6699C13.3413 59.0462 12.9953 58.2155 12.9953 57.3304V55.0718H12.9975V51.9218H12.9953V45.5251C12.9953 45.1074 12.8293 44.7068 12.534 44.4114C12.2386 44.116 11.838 43.9501 11.4203 43.9501C11.0026 43.9501 10.6019 44.116 10.3066 44.4114C10.0112 44.7068 9.84527 45.1074 9.84527 45.5251V51.9218H7.10117V5.52684H42.3182V16.9298H28.1072C27.2387 16.9298 26.5322 17.6318 26.5322 18.5048V51.9218H14.1212V55.0718H26.5322V68.0498C26.5322 68.9228 27.2387 69.6248 28.1072 69.6248H56.3762C56.3802 69.6248 56.3843 69.6262 56.3888 69.6262C56.8059 69.6258 57.2059 69.4605 57.5016 69.1663L57.5021 69.1658L57.503 69.1649L57.9818 68.6861L67.5906 59.0818C67.6122 59.0597 67.6284 59.0336 67.6487 59.0102C67.6887 58.9652 67.7274 58.9193 67.7616 58.8707C67.7805 58.8433 67.7972 58.8154 67.8143 58.7866C67.8485 58.7308 67.8791 58.6732 67.9056 58.6142C67.9169 58.5895 67.9286 58.5652 67.9385 58.5395C68.0064 58.3654 68.0429 58.1813 68.0465 57.9946C68.0465 57.9847 68.0492 57.9752 68.0492 57.9658V18.5035ZM62.6708 59.5394L57.9638 64.2464V59.5394H62.6708Z" fill="black"/>
</svg>
